<svg width="22" height="27" viewBox="0 0 22 27" fill="none" xmlns="http://www.w3.org/2000/svg">
<g clip-path="url(#clip0_20_1810)">
<path d="M10.9999 16.1719C13.9553 16.1719 16.3588 13.7752 16.3588 10.8281C16.3588 7.88105 13.9553 5.48438 10.9999 5.48438C8.04438 5.48438 5.64088 7.88105 5.64088 10.8281C5.64088 13.7752 8.04438 16.1719 10.9999 16.1719ZM10.9999 8.15625C12.4776 8.15625 13.6793 9.35459 13.6793 10.8281C13.6793 12.3017 12.4776 13.5 10.9999 13.5C9.52212 13.5 8.32037 12.3017 8.32037 10.8281C8.32037 9.35459 9.52212 8.15625 10.9999 8.15625Z" fill="#FF5722"/>
<path d="M9.94117 26.6109C10.1679 26.7724 10.4396 26.8592 10.7182 26.8592C10.9969 26.8592 11.2685 26.7724 11.4953 26.6109C11.9026 26.3237 21.475 19.4316 21.4362 10.8281C21.4362 4.9353 16.6278 0.140625 10.7182 0.140625C4.80861 0.140625 0.000270536 4.9353 0.000270536 10.8214C-0.038582 19.4316 9.53389 26.3237 9.94117 26.6109ZM10.7182 2.8125C15.1514 2.8125 18.7567 6.40751 18.7567 10.8348C18.7848 16.7637 12.8779 22.0874 10.7182 23.8335C8.55989 22.0861 2.65162 16.761 2.67976 10.8281C2.67976 6.40751 6.28501 2.8125 10.7182 2.8125Z" fill="#FF5722"/>
</g>
<defs>
<clipPath id="clip0_20_1810">
<rect width="22" height="27" fill="white"/>
</clipPath>
</defs>
</svg>
