<?xml version="1.0" encoding="UTF-8"?>
<svg version="1.1" xmlns="http://www.w3.org/2000/svg" width="128" height="128">
<path d="M0 0 C5.28 0 10.56 0 16 0 C16.680625 1.7015625 16.680625 1.7015625 17.375 3.4375 C18.39250255 5.46579722 18.39250255 5.46579722 20 7 C22.25852647 7.36527342 22.25852647 7.36527342 24.75 7.25 C28.45699486 7.34294825 29.61114525 7.61313597 32.2890625 10.27734375 C34.78128688 13.75432346 37.04485769 17.29649877 39.13671875 21.02734375 C40.12408317 22.82853191 40.12408317 22.82853191 42 25 C44.3260857 25.38063221 46.66055264 25.71269945 49 26 C51.703125 28.0390625 51.703125 28.0390625 54 31 C54.36771245 33.8387401 54.48630804 36.01820151 54.3125 38.8125 C54.28994141 39.50537109 54.26738281 40.19824219 54.24414062 40.91210938 C54.18562661 42.60901573 54.0959548 44.30479861 54 46 C55.32 46 56.64 46 58 46 C58.06058594 46.78246094 58.12117188 47.56492188 58.18359375 48.37109375 C58.26738281 49.38300781 58.35117188 50.39492187 58.4375 51.4375 C58.51871094 52.44683594 58.59992188 53.45617187 58.68359375 54.49609375 C58.73211468 56.93640779 58.73211468 56.93640779 60 58 C60.27314815 63.73611111 60.27314815 63.73611111 60 66 C59.34 66.66 58.68 67.32 58 68 C55.90816957 67.97291455 53.81542031 67.93479072 51.7265625 67.82006836 C44.32626129 67.19621379 44.32626129 67.19621379 37.546875 69.515625 C36.12473937 71.28252078 35.06959554 73.00883329 34 75 C29.76807794 77.11596103 24.58263678 76.63631517 20 76 C17.12179168 74.44356455 14.94258559 72.64027479 13 70 C13 69.34 13 68.68 13 68 C7.27098976 67.82652072 1.54351833 67.69972988 -4.1875 67.61547852 C-6.13536214 67.58034836 -8.08304063 67.53263167 -10.03027344 67.47192383 C-12.83574743 67.38667066 -15.63877639 67.34723955 -18.4453125 67.31640625 C-19.31116974 67.28027725 -20.17702698 67.24414825 -21.06912231 67.20692444 C-25.85298945 67.1946409 -25.85298945 67.1946409 -29.855896 69.5697937 C-31.48372873 71.43839549 -31.48372873 71.43839549 -32.82809448 73.39512634 C-34 75 -34 75 -36 76 C-40.91460837 76.58915639 -45.888162 77.1420089 -50.34765625 74.73046875 C-52.11259633 73.2409608 -53.63133835 71.86022322 -55 70 C-55 69.34 -55 68.68 -55 68 C-56.15628906 68.05220703 -56.15628906 68.05220703 -57.3359375 68.10546875 C-58.33882812 68.13253906 -59.34171875 68.15960938 -60.375 68.1875 C-61.87160156 68.23970703 -61.87160156 68.23970703 -63.3984375 68.29296875 C-64.25695312 68.19628906 -65.11546875 68.09960938 -66 68 C-68.31332486 64.53001271 -68.33957563 63.07490752 -68 59 C-67.34 58.01 -66.68 57.02 -66 56 C-65.34 56 -64.68 56 -64 56 C-63.97421875 55.29875 -63.9484375 54.5975 -63.921875 53.875 C-63.42549593 45.571932 -61.96491729 39.47673802 -55.75 33.6875 C-50.71450281 29.74481284 -45.79222043 28.01972498 -39.4375 27.75 C-34.72591217 27.34661063 -32.80915449 25.42446155 -29.75 21.96875 C-27.34506825 19.26320178 -24.65024431 16.98008312 -21.89453125 14.640625 C-20.02502814 13.06627246 -20.02502814 13.06627246 -18.51171875 11.484375 C-15.33323291 8.36856353 -13.15429572 7.77515073 -8.875 7.625 C-5.22741536 7.53502328 -5.22741536 7.53502328 -2.46875 5.39453125 C-1.21273779 3.24579389 -1.21273779 3.24579389 0 0 Z " fill="#020201" transform="translate(68,26)"/>
<path d="M0 0 C2.24609375 -0.3203125 2.24609375 -0.3203125 5 0 C7.09765625 2.1953125 7.09765625 2.1953125 9.0625 5.125 C9.75601563 6.12660156 10.44953125 7.12820312 11.1640625 8.16015625 C12.52834647 10.2704423 13.74089489 12.36140529 14.9375 14.5625 C17.64833985 17.76621983 19.92184242 18.0123501 23.9765625 18.578125 C26 19 26 19 28 21 C28.3063859 23.73434962 28.5113336 26.38279821 28.625 29.125 C28.66367188 29.87910156 28.70234375 30.63320312 28.7421875 31.41015625 C28.83651031 33.27303184 28.91934662 35.13648255 29 37 C30.485 37.495 30.485 37.495 32 38 C32 39.98 32 41.96 32 44 C31.08476563 44.06058594 30.16953125 44.12117188 29.2265625 44.18359375 C28.03804688 44.26738281 26.84953125 44.35117188 25.625 44.4375 C24.44164063 44.51871094 23.25828125 44.59992188 22.0390625 44.68359375 C19.08481099 44.81084936 19.08481099 44.81084936 17 46 C16.46375 45.071875 15.9275 44.14375 15.375 43.1875 C12.73787429 39.6481997 11.12904663 38.45731057 7 37 C2.73689853 36.46711232 0.62594591 36.66861687 -3.1875 38.6875 C-5.90902474 40.92519812 -7.94224449 43.15080006 -10 46 C-10.33 45.67 -10.66 45.34 -11 45 C-13.78825348 44.89894178 -16.55120873 44.8603016 -19.33984375 44.8671875 C-20.17713516 44.86623077 -21.01442657 44.86527405 -21.87709045 44.86428833 C-23.65170364 44.86360645 -25.42631931 44.86546128 -27.20092773 44.86962891 C-29.9224202 44.8749704 -32.64374712 44.86968765 -35.36523438 44.86328125 C-37.08593787 44.86394216 -38.80664125 44.86522359 -40.52734375 44.8671875 C-41.75395973 44.86415115 -41.75395973 44.86415115 -43.00535583 44.86105347 C-47.13500659 44.77237268 -47.13500659 44.77237268 -51 46 C-51.53625 45.071875 -52.0725 44.14375 -52.625 43.1875 C-55.26212571 39.6481997 -56.87095337 38.45731057 -61 37 C-65.26310147 36.46711232 -67.37405409 36.66861687 -71.1875 38.6875 C-73.90902474 40.92519812 -75.94224449 43.15080006 -78 46 C-78.99 45.34 -79.98 44.68 -81 44 C-81.68939249 38.36996134 -80.72879444 32.96965875 -78 28 C-72.1009772 21.99882962 -65.97562405 19.76636072 -57.6394043 19.68115234 C-56.91690994 19.67110672 -56.19441559 19.6610611 -55.45002747 19.65071106 C-53.07476558 19.61995338 -50.69961604 19.60286484 -48.32421875 19.5859375 C-46.67225686 19.56721986 -45.02030447 19.547646 -43.36836243 19.5272522 C-39.02999479 19.47598789 -34.69159618 19.43633174 -30.35308838 19.39910889 C-25.92216362 19.35903343 -21.49136709 19.30795726 -17.06054688 19.2578125 C-8.37378561 19.16112074 0.31303927 19.07669446 9 19 C7.59923802 14.5761376 5.96630836 11.110303 3.375 7.25 C0 2.20816327 0 2.20816327 0 0 Z " fill="#F0C53C" transform="translate(90,38)"/>
<path d="M0 0 C2.52080423 1.64400276 3.75169418 2.77601982 5.5625 5.0625 C6.325625 5.990625 7.08875 6.91875 7.875 7.875 C8.865 7.875 9.855 7.875 10.875 7.875 C10.400625 8.90625 9.92625 9.9375 9.4375 11 C8.32121113 13.53331309 7.85521208 15.11740198 7.625 17.9375 C6.66305771 21.70510731 5.20615886 23.35865351 2.16796875 25.7265625 C-2.44855594 28.03875715 -7.15046159 27.91024178 -12.125 26.875 C-14.98498947 25.29144879 -17.18305161 23.51440873 -19.125 20.875 C-19.125 20.215 -19.125 19.555 -19.125 18.875 C-32.655 18.875 -46.185 18.875 -60.125 18.875 C-59.795 17.555 -59.465 16.235 -59.125 14.875 C-46.585 14.875 -34.045 14.875 -21.125 14.875 C-21.125 13.555 -21.125 12.235 -21.125 10.875 C-33.665 10.875 -46.205 10.875 -59.125 10.875 C-58.465 9.555 -57.805 8.235 -57.125 6.875 C-44.45833333 6.875 -31.79166667 6.875 -19.125 6.875 C-17.88056472 5.36857835 -16.6373191 3.86111424 -15.40625 2.34375 C-11.28349155 -2.38233895 -5.57434518 -2.00676427 0 0 Z " fill="#020201" transform="translate(100.125,75.125)"/>
<path d="M0 0 C14.92907038 -1.64572429 14.92907038 -1.64572429 18.68847656 1.34179688 C21.91529262 5.15114159 26 10.89719257 26 16 C17.42 16 8.84 16 0 16 C0 10.72 0 5.44 0 0 Z " fill="#6BDAEA" transform="translate(68,38)"/>
<path d="M0 0 C3.95403662 0.26360244 5.65370756 0.86143155 8.75 3.25 C11.23386059 6.97579089 11.1304212 8.83711402 10.75 13.25 C9.49544028 16.07275936 8.46615278 17.71288541 6 19.5625 C2.68788168 20.57453615 0.19560774 20.67314481 -3.25 20.25 C-7.12949018 17.04520377 -9.05826445 14.94366403 -9.625 9.9375 C-9.15786625 5.34401813 -7.72959782 4.13552015 -4.25 1.25 C-3.25 0.25 -3.25 0.25 0 0 Z " fill="#6F7073" transform="translate(93.25,77.75)"/>
<path d="M0 0 C3.95403662 0.26360244 5.65370756 0.86143155 8.75 3.25 C11.23386059 6.97579089 11.1304212 8.83711402 10.75 13.25 C9.49544028 16.07275936 8.46615278 17.71288541 6 19.5625 C2.68788168 20.57453615 0.19560774 20.67314481 -3.25 20.25 C-7.12949018 17.04520377 -9.05826445 14.94366403 -9.625 9.9375 C-9.15786625 5.34401813 -7.72959782 4.13552015 -4.25 1.25 C-3.25 0.25 -3.25 0.25 0 0 Z " fill="#6F7073" transform="translate(25.25,77.75)"/>
<path d="M0 0 C0 5.28 0 10.56 0 16 C-7.92 16 -15.84 16 -24 16 C-16.73684211 7.52631579 -16.73684211 7.52631579 -13.125 4.0625 C-12.34382813 3.29035156 -11.56265625 2.51820312 -10.7578125 1.72265625 C-8 0 -8 0 0 0 Z " fill="#6DE0EE" transform="translate(64,38)"/>
<path d="M0 0 C13.2 0 26.4 0 40 0 C40 1.98 40 3.96 40 6 C20.2 5.505 20.2 5.505 0 5 C0 3.35 0 1.7 0 0 Z " fill="#57585A" transform="translate(40,85)"/>
<path d="M0 0 C-0.33 0.99 -0.66 1.98 -1 3 C-3.14453125 3.84375 -3.14453125 3.84375 -5.8125 4.5 C-9.53034563 5.42259685 -12.14427693 6.39034831 -15 9 C-15.8042208 11.59855733 -15.8042208 11.59855733 -16 14 C-17.32 14.33 -18.64 14.66 -20 15 C-20.66 18.3 -21.32 21.6 -22 25 C-22.99 24.67 -23.98 24.34 -25 24 C-25.3669054 18.25181535 -24.8129725 13.12296317 -22 8 C-15.45657123 1.3432651 -9.0607778 -0.35532462 0 0 Z " fill="#D69422" transform="translate(34,58)"/>
<path d="M0 0 C0.721875 0.268125 1.44375 0.53625 2.1875 0.8125 C1.1875 3.8125 1.1875 3.8125 -0.875 5 C-1.514375 5.268125 -2.15375 5.53625 -2.8125 5.8125 C-2.4825 7.4625 -2.1525 9.1125 -1.8125 10.8125 C0.63230079 10.62421228 0.63230079 10.62421228 3.1875 9.8125 C4.54770151 7.84491727 4.54770151 7.84491727 5.1875 5.8125 C6.1775 6.1425 7.1675 6.4725 8.1875 6.8125 C7.70530822 12.23715753 7.70530822 12.23715753 5.5 14.6875 C2.40257874 16.19435358 0.59614082 16.36901279 -2.8125 15.8125 C-6.13524404 13.35655875 -7.58868008 11.8868356 -8.4375 7.8125 C-7.4583422 3.11254258 -5.09705772 -0.33980385 0 0 Z " fill="#090909" transform="translate(93.8125,80.1875)"/>
<path d="M0 0 C0.721875 0.268125 1.44375 0.53625 2.1875 0.8125 C1.1875 3.8125 1.1875 3.8125 -0.875 5 C-1.514375 5.268125 -2.15375 5.53625 -2.8125 5.8125 C-2.4825 7.4625 -2.1525 9.1125 -1.8125 10.8125 C0.63230079 10.62421228 0.63230079 10.62421228 3.1875 9.8125 C4.54770151 7.84491727 4.54770151 7.84491727 5.1875 5.8125 C6.1775 6.1425 7.1675 6.4725 8.1875 6.8125 C7.70530822 12.23715753 7.70530822 12.23715753 5.5 14.6875 C2.40257874 16.19435358 0.59614082 16.36901279 -2.8125 15.8125 C-6.13524404 13.35655875 -7.58868008 11.8868356 -8.4375 7.8125 C-7.4583422 3.11254258 -5.09705772 -0.33980385 0 0 Z " fill="#090909" transform="translate(25.8125,80.1875)"/>
<path d="M0 0 C2.875 0.9375 2.875 0.9375 4.875 3.9375 C4.95405064 6.26949388 4.96298769 8.60582622 4.875 10.9375 C3.555 10.9375 2.235 10.9375 0.875 10.9375 C-0.9503125 11.2159375 -0.9503125 11.2159375 -2.8125 11.5 C-4.4521875 11.7165625 -4.4521875 11.7165625 -6.125 11.9375 C-7.125 10.9375 -7.125 10.9375 -7.4375 7.625 C-7.125 3.9375 -7.125 3.9375 -5.5 1.4375 C-3.125 -0.0625 -3.125 -0.0625 0 0 Z " fill="#141005" transform="translate(57.125,64.0625)"/>
<path d="M0 0 C0 0.66 0 1.32 0 2 C-1.03833984 2.30550781 -1.03833984 2.30550781 -2.09765625 2.6171875 C-6.58783789 4.75652034 -9.65870994 8.29383097 -13.09570312 11.83203125 C-17.28026543 15.92250281 -17.28026543 15.92250281 -21.41015625 16.3671875 C-22.26480469 16.24601562 -23.11945312 16.12484375 -24 16 C-9.75 -1.625 -9.75 -1.625 0 0 Z " fill="#5CADD1" transform="translate(64,38)"/>
<path d="M0 0 C0.9075 0.37125 1.815 0.7425 2.75 1.125 C5.88097015 2.30359299 5.88097015 2.30359299 8.375 1.125 C8.91125 0.75375 9.4475 0.3825 10 0 C10 4 10 8 10 12 C9.0925 11.62875 8.185 11.2575 7.25 10.875 C4.11902985 9.69640701 4.11902985 9.69640701 1.625 10.875 C1.08875 11.24625 0.5525 11.6175 0 12 C0 8 0 4 0 0 Z " fill="#040301" transform="translate(65,64)"/>
<path d="M0 0 C3.3 0 6.6 0 10 0 C10 1.32 10 2.64 10 4 C9.01 4 8.02 4 7 4 C7 6.31 7 8.62 7 11 C5.68 11 4.36 11 3 11 C3 8.69 3 6.38 3 4 C1.68 3.67 0.36 3.34 -1 3 C-0.67 2.01 -0.34 1.02 0 0 Z " fill="#040301" transform="translate(39,64)"/>
<path d="M0 0 C4.95 0 9.9 0 15 0 C15 1.32 15 2.64 15 4 C10.05 4 5.1 4 0 4 C0 2.68 0 1.36 0 0 Z " fill="#57585A" transform="translate(108,86)"/>
<path d="M0 0 C0.556875 0.226875 1.11375 0.45375 1.6875 0.6875 C0.9375 6.4375 0.9375 6.4375 -1.3125 8.6875 C-3.9375 8.3125 -3.9375 8.3125 -6.3125 7.6875 C-6.6425 6.0375 -6.9725 4.3875 -7.3125 2.6875 C-2.88173077 -0.38942308 -2.88173077 -0.38942308 0 0 Z " fill="#E3E4E4" transform="translate(97.3125,83.3125)"/>
<path d="M0 0 C0.556875 0.226875 1.11375 0.45375 1.6875 0.6875 C0.9375 6.4375 0.9375 6.4375 -1.3125 8.6875 C-3.9375 8.3125 -3.9375 8.3125 -6.3125 7.6875 C-6.6425 6.0375 -6.9725 4.3875 -7.3125 2.6875 C-2.88173077 -0.38942308 -2.88173077 -0.38942308 0 0 Z " fill="#E3E4E4" transform="translate(29.3125,83.3125)"/>
<path d="M0 0 C4.19189408 0.1612267 6.51099943 0.64625491 9.9375 3.125 C12.48038638 6.6696295 12.41856088 8.730679 12 13 C11.01 13.495 11.01 13.495 10 14 C9.938125 13.2575 9.87625 12.515 9.8125 11.75 C8.75439525 8.16872239 6.96747764 7.15142129 4 5 C3.67 4.34 3.34 3.68 3 3 C0.98330173 1.86649466 0.98330173 1.86649466 -1 1 C-0.67 0.67 -0.34 0.34 0 0 Z " fill="#787A7D" transform="translate(92,78)"/>
<path d="M0 0 C4.19189408 0.1612267 6.51099943 0.64625491 9.9375 3.125 C12.48038638 6.6696295 12.41856088 8.730679 12 13 C11.01 13.495 11.01 13.495 10 14 C9.938125 13.2575 9.87625 12.515 9.8125 11.75 C8.75439525 8.16872239 6.96747764 7.15142129 4 5 C3.67 4.34 3.34 3.68 3 3 C0.98330173 1.86649466 0.98330173 1.86649466 -1 1 C-0.67 0.67 -0.34 0.34 0 0 Z " fill="#787A7D" transform="translate(24,78)"/>
<path d="M0 0 C3.3 0 6.6 0 10 0 C10.66 1.32 11.32 2.64 12 4 C7.38 4 2.76 4 -2 4 C-1.34 2.68 -0.68 1.36 0 0 Z " fill="#F3A726" transform="translate(71,30)"/>
<path d="M0 0 C0.99 0.33 1.98 0.66 3 1 C3 4.3 3 7.6 3 11 C1.68 11 0.36 11 -1 11 C-1.02688151 9.35425434 -1.04634123 7.70838587 -1.0625 6.0625 C-1.07410156 5.14597656 -1.08570312 4.22945313 -1.09765625 3.28515625 C-1 1 -1 1 0 0 Z " fill="#040301" transform="translate(79,64)"/>
<path d="M0 0 C0 1.98 0 3.96 0 6 C-2.31 5.67 -4.62 5.34 -7 5 C-7 3.68 -7 2.36 -7 1 C-1.125 0 -1.125 0 0 0 Z " fill="#555658" transform="translate(12,85)"/>
<path d="M0 0 C2.31 0 4.62 0 7 0 C6.01 1.485 6.01 1.485 5 3 C1.875 3.1875 1.875 3.1875 -1 3 C-0.67 2.01 -0.34 1.02 0 0 Z " fill="#FFB42B" transform="translate(34,58)"/>
</svg>
