<?xml version="1.0" encoding="UTF-8"?>
<svg version="1.1" xmlns="http://www.w3.org/2000/svg" width="128" height="128">
<path d="M0 0 C0.81824753 -0.0065712 1.63649506 -0.0131424 2.47953796 -0.01991272 C5.18915907 -0.03963301 7.89872476 -0.05130592 10.60839844 -0.0612793 C11.53467796 -0.06535482 12.46095749 -0.06943035 13.41530609 -0.07362938 C18.31869788 -0.09448541 23.22206173 -0.10878875 28.12548828 -0.11816406 C33.18399718 -0.12922324 38.24206557 -0.16361882 43.30041885 -0.20333576 C47.19527999 -0.22951189 51.09003636 -0.23785682 54.98497772 -0.24144554 C56.84925052 -0.24630947 58.71351869 -0.25791795 60.57770538 -0.27648354 C63.19147903 -0.3008948 65.80411543 -0.29990645 68.41796875 -0.29296875 C69.56536781 -0.31218384 69.56536781 -0.31218384 70.73594666 -0.33178711 C76.22880753 -0.27884896 79.41749664 1.08329464 83.96777344 4.17700195 C86.93824325 7.71559441 86.18746774 12.53464311 86.09277344 16.92700195 C86.08375 17.71977539 86.07472656 18.51254883 86.06542969 19.3293457 C86.04194355 21.27869477 86.00607481 23.2278877 85.96777344 25.17700195 C87.16015625 25.35875977 88.35253906 25.54051758 89.58105469 25.7277832 C91.14756426 25.98105122 92.71396506 26.23499267 94.28027344 26.48950195 C95.06595703 26.60745117 95.85164063 26.72540039 96.66113281 26.84692383 C97.41845703 26.97260742 98.17578125 27.09829102 98.95605469 27.2277832 C100.00079956 27.39274292 100.00079956 27.39274292 101.06665039 27.56103516 C103.43349101 28.32789516 104.46223697 29.20477505 105.96777344 31.17700195 C106.31894447 33.9460719 106.5245048 36.52736948 106.59277344 39.30200195 C106.32249108 44.12516206 106.32249108 44.12516206 107.96777344 48.17700195 C108.09430541 50.66938765 108.15297169 53.12170636 108.15527344 55.61450195 C108.16751953 56.30866211 108.17976562 57.00282227 108.19238281 57.71801758 C108.19767185 59.53921096 108.08946551 61.35987115 107.96777344 63.17700195 C105.96777344 65.17700195 105.96777344 65.17700195 103.53027344 65.42700195 C102.68464844 65.67450195 101.83902344 65.92200195 100.96777344 66.17700195 C99.93190553 68.15866229 98.93664925 70.16174027 97.96777344 72.17700195 C94.31178072 75.99503313 90.99744253 78.02381938 85.65527344 78.42700195 C81.01409856 78.11234603 77.87995367 77.06341156 74.51855469 73.74731445 C72.39039914 71.29597196 70.99899421 69.27066427 69.96777344 66.17700195 C55.11777344 65.84700195 40.26777344 65.51700195 24.96777344 65.17700195 C24.30777344 67.15700195 23.64777344 69.13700195 22.96777344 71.17700195 C21.34667969 73.0402832 21.34667969 73.0402832 19.53027344 74.48950195 C18.9334375 74.98063477 18.33660156 75.47176758 17.72167969 75.9777832 C13.94125032 78.56262021 10.41098953 78.54726996 5.96777344 78.17700195 C1.11455533 76.31271775 -2.13722239 73.51950821 -5.03222656 69.17700195 C-5.36222656 68.18700195 -5.69222656 67.19700195 -6.03222656 66.17700195 C-7.29679688 66.10352539 -7.29679688 66.10352539 -8.58691406 66.02856445 C-9.68261719 65.95379883 -10.77832031 65.8790332 -11.90722656 65.80200195 C-12.99777344 65.73239258 -14.08832031 65.6627832 -15.21191406 65.59106445 C-18.03222656 65.17700195 -18.03222656 65.17700195 -20.03222656 63.17700195 C-20.17720641 60.59636067 -20.21900201 58.12756311 -20.15722656 55.55200195 C-20.14820312 54.8455957 -20.13917969 54.13918945 -20.12988281 53.41137695 C-20.1063026 51.66644097 -20.07043117 49.921679 -20.03222656 48.17700195 C-19.37222656 48.17700195 -18.71222656 48.17700195 -18.03222656 48.17700195 C-18.04793701 47.05729004 -18.06364746 45.93757813 -18.07983398 44.78393555 C-18.13430551 40.61311084 -18.16863909 36.44231734 -18.19702148 32.27124023 C-18.21206896 30.46910304 -18.23251186 28.66700222 -18.25854492 26.86499023 C-18.29510678 24.26838175 -18.31199337 21.67225921 -18.32519531 19.07543945 C-18.3484211 17.8750856 -18.3484211 17.8750856 -18.37211609 16.65048218 C-18.37357918 11.74107265 -17.71610915 8.44853914 -15.03222656 4.17700195 C-10.43599506 0.01166716 -5.93851778 0.02065652 0 0 Z " fill="#060705" transform="translate(20.0322265625,24.822998046875)"/>
<path d="M0 0 C0.802099 -0.00365067 1.604198 -0.00730133 2.43060303 -0.01106262 C5.07968377 -0.01916248 7.72815168 -0.00556167 10.37719727 0.0090332 C12.22038269 0.00955193 14.06356867 0.00903374 15.90675354 0.00752258 C19.7694627 0.00761228 23.63196307 0.01803655 27.49462891 0.03613281 C32.44221747 0.05880392 37.38950054 0.05936669 42.33712673 0.05261517 C46.14356697 0.04927082 49.94993777 0.05591434 53.75636482 0.0657444 C55.58039041 0.06958984 57.40442373 0.07074734 59.22845268 0.06915855 C61.78005513 0.06878702 64.33126858 0.08143339 66.8828125 0.09765625 C67.63466324 0.09517883 68.38651398 0.09270142 69.16114807 0.09014893 C73.19378511 0.13099494 76.44551282 0.4041989 80.00610352 2.37231445 C82.00610352 5.37231445 82.00610352 5.37231445 82.00610352 8.37231445 C78.37610352 8.37231445 74.74610352 8.37231445 71.00610352 8.37231445 C71.00610352 13.98231445 71.00610352 19.59231445 71.00610352 25.37231445 C73.31610352 25.37231445 75.62610352 25.37231445 78.00610352 25.37231445 C78.00610352 24.71231445 78.00610352 24.05231445 78.00610352 23.37231445 C80.78028748 23.87671154 83.42746752 24.49872365 86.13110352 25.30981445 C90.27132371 26.53722486 94.49244193 27.2058934 98.74829102 27.9074707 C101.00610352 28.37231445 101.00610352 28.37231445 102.00610352 29.37231445 C102.07882093 31.72545 102.08981219 34.08065114 102.06860352 36.43481445 C102.05958008 37.72516602 102.05055664 39.01551758 102.04125977 40.3449707 C102.0296582 41.34399414 102.01805664 42.34301758 102.00610352 43.37231445 C101.01610352 43.86731445 101.01610352 43.86731445 100.00610352 44.37231445 C99.59881124 46.69388042 99.26171675 49.02919315 99.00610352 51.37231445 C97.52110352 50.38231445 97.52110352 50.38231445 96.00610352 49.37231445 C96.00610352 48.71231445 96.00610352 48.05231445 96.00610352 47.37231445 C89.92492883 44.60714263 83.42692073 44.20778093 77.06860352 46.37231445 C74.10241106 49.24862228 72.60906515 52.60222032 71.00610352 56.37231445 C69.68610352 56.37231445 68.36610352 56.37231445 67.00610352 56.37231445 C66.67610352 40.86231445 66.34610352 25.35231445 66.00610352 9.37231445 C58.74610352 9.37231445 51.48610352 9.37231445 44.00610352 9.37231445 C43.67610352 24.88231445 43.34610352 40.39231445 43.00610352 56.37231445 C36.73610352 56.37231445 30.46610352 56.37231445 24.00610352 56.37231445 C22.68610352 53.73231445 21.36610352 51.09231445 20.00610352 48.37231445 C16.15733531 44.64017559 11.81166688 45.0501 6.72485352 45.0715332 C3.81521979 45.39343234 1.63097924 46.08975696 -0.99389648 47.37231445 C-3.02986577 50.37269024 -3.89946084 53.93265957 -4.99389648 57.37231445 C-6.31389648 57.37231445 -7.63389648 57.37231445 -8.99389648 57.37231445 C-9.32389648 53.08231445 -9.65389648 48.79231445 -9.99389648 44.37231445 C-11.31389648 44.04231445 -12.63389648 43.71231445 -13.99389648 43.37231445 C-13.99389648 32.81231445 -13.99389648 22.25231445 -13.99389648 11.37231445 C-11.02389648 11.37231445 -8.05389648 11.37231445 -4.99389648 11.37231445 C-3.99389648 12.37231445 -3.99389648 12.37231445 -3.89624023 15.9699707 C-3.90291428 17.45828313 -3.91487465 18.94657877 -3.93139648 20.43481445 C-3.9359082 21.19342773 -3.94041992 21.95204102 -3.94506836 22.73364258 C-3.95688968 24.61323317 -3.97482571 26.49278344 -3.99389648 28.37231445 C-5.64389648 28.70231445 -7.29389648 29.03231445 -8.99389648 29.37231445 C-8.99389648 30.03231445 -8.99389648 30.69231445 -8.99389648 31.37231445 C6.51610352 31.37231445 22.02610352 31.37231445 38.00610352 31.37231445 C38.33610352 23.78231445 38.66610352 16.19231445 39.00610352 8.37231445 C21.51610352 8.37231445 4.02610352 8.37231445 -13.99389648 8.37231445 C-10.87856641 0.58398926 -8.00640264 -0.08117903 0 0 Z " fill="#F7C859" transform="translate(19.993896484375,28.627685546875)"/>
<path d="M0 0 C3.41503613 1.20869256 5.03279841 2.78689381 7.0859375 5.73828125 C8.27985261 9.84236445 8.36843057 11.96514232 6.8984375 15.98828125 C4.02680707 20.34523777 4.02680707 20.34523777 1.0859375 21.73828125 C-3.4715211 22.43087815 -6.81215699 22.3712908 -10.8515625 20.05078125 C-14.06558009 16.44718577 -14.88864387 14.13630599 -14.9765625 9.30078125 C-13.74463038 5.17018531 -12.39094429 3.37177283 -9.015625 0.78125 C-5.8444254 -0.79256096 -3.42634726 -0.67240603 0 0 Z " fill="#333D47" transform="translate(108.9140625,76.26171875)"/>
<path d="M0 0 C3.81190458 3.23183214 5.80004527 5.26705898 6.375 10.25 C5.88072704 15.19272958 4.46171699 16.53828301 1 20 C-2.45739557 21.72869779 -6.21975568 21.48966895 -10 21 C-12.87029869 19.20606332 -14.49131638 18.01736724 -16 15 C-16.54016597 10.49271349 -16.60322525 7.05005877 -14.3125 3.0625 C-9.6480254 -1.09770707 -6.0606283 -1.62338258 0 0 Z " fill="#313B44" transform="translate(35,77)"/>
<path d="M0 0 C3.9290625 -0.0309375 3.9290625 -0.0309375 7.9375 -0.0625 C8.7637085 -0.071604 9.58991699 -0.08070801 10.44116211 -0.09008789 C12.29433759 -0.09723945 14.14749308 -0.0502852 16 0 C17 1 17 1 17.09765625 4.59765625 C17.09191272 6.08597255 17.07889891 7.57426296 17.0625 9.0625 C17.041875 11.681875 17.02125 14.30125 17 17 C11.39 17 5.78 17 0 17 C0 11.39 0 5.78 0 0 Z " fill="#0ABABE" transform="translate(39,40)"/>
<path d="M0 0 C3.9290625 -0.0309375 3.9290625 -0.0309375 7.9375 -0.0625 C8.7637085 -0.071604 9.58991699 -0.08070801 10.44116211 -0.09008789 C12.29433759 -0.09723945 14.14749308 -0.0502852 16 0 C17 1 17 1 17.09765625 4.59765625 C17.09191272 6.08597255 17.07889891 7.57426296 17.0625 9.0625 C17.041875 11.681875 17.02125 14.30125 17 17 C11.39 17 5.78 17 0 17 C0 11.39 0 5.78 0 0 Z " fill="#0ABABE" transform="translate(19,40)"/>
<path d="M0 0 C2.77418397 0.50439708 5.421364 1.1264092 8.125 1.9375 C12.26522019 3.16491041 16.48633842 3.83357895 20.7421875 4.53515625 C23 5 23 5 24 6 C24.07271741 8.35313555 24.08370868 10.70833668 24.0625 13.0625 C24.05347656 14.35285156 24.04445313 15.64320312 24.03515625 16.97265625 C24.02355469 17.97167969 24.01195313 18.97070312 24 20 C23.34 20.33 22.68 20.66 22 21 C21.59270772 23.32156597 21.25561323 25.6568787 21 28 C19.51171875 26.98046875 19.51171875 26.98046875 18 25 C17.7827899 22.35003674 17.71648446 19.94923442 17.8125 17.3125 C17.83280273 16.2596582 17.83280273 16.2596582 17.85351562 15.18554688 C17.88879818 13.45670171 17.94260417 11.72825235 18 10 C17.04738281 9.90203125 16.09476563 9.8040625 15.11328125 9.703125 C13.23189453 9.47882812 13.23189453 9.47882812 11.3125 9.25 C10.07113281 9.11078125 8.82976562 8.9715625 7.55078125 8.828125 C3.67488932 7.92417661 1.93497115 6.60427018 -1 4 C-3.68507329 3.21053391 -3.68507329 3.21053391 -6 3 C-6 2.67 -6 2.34 -6 2 C-4.02 2 -2.04 2 0 2 C0 1.34 0 0.68 0 0 Z " fill="#F6963B" transform="translate(98,52)"/>
<path d="M0 0 C2.97 0 5.94 0 9 0 C10 1 10 1 10.09765625 4.59765625 C10.0909822 6.08596867 10.07902183 7.57426432 10.0625 9.0625 C10.05798828 9.82111328 10.05347656 10.57972656 10.04882812 11.36132812 C10.0370068 13.24091871 10.01907078 15.12046899 10 17 C6.38026598 18.31626692 3.90432869 19 0 19 C0 12.73 0 6.46 0 0 Z " fill="#0ABBBE" transform="translate(6,40)"/>
<path d="M0 0 C1.98 0 3.96 0 6 0 C6 7.92 6 15.84 6 24 C4.02 24 2.04 24 0 24 C0 16.08 0 8.16 0 0 Z " fill="#00D3D8" transform="translate(77,61)"/>
<path d="M0 0 C1.98 0 3.96 0 6 0 C6 7.92 6 15.84 6 24 C4.02 24 2.04 24 0 24 C0 16.08 0 8.16 0 0 Z " fill="#86F7F3" transform="translate(67,61)"/>
<path d="M0 0 C1 1 1 1 1.0625 4.0625 C1.041875 5.031875 1.02125 6.00125 1 7 C1.66 7 2.32 7 3 7 C2.67 9.31 2.34 11.62 2 14 C-2.75 15.125 -2.75 15.125 -5 14 C-5 12.35 -5 10.7 -5 9 C-4.0409375 8.5978125 -4.0409375 8.5978125 -3.0625 8.1875 C-0.66868314 7.11332248 -0.66868314 7.11332248 0 4 C-4.41522109 5.26974972 -4.41522109 5.26974972 -8 8 C-8.64767793 10.57061311 -8.64767793 10.57061311 -9 13 C-10.32 13 -11.64 13 -13 13 C-12.93117244 9.558622 -12.76026228 6.94469249 -10.55078125 4.19921875 C-7.22200815 1.17371782 -4.71066212 -0.9698422 0 0 Z " fill="#505D6A" transform="translate(107,76)"/>
<path d="M0 0 C-0.3125 1.9375 -0.3125 1.9375 -1 4 C-1.99 4.33 -2.98 4.66 -4 5 C-4.33 6.65 -4.66 8.3 -5 10 C-2.69 10 -0.38 10 2 10 C2 8.35 2 6.7 2 5 C3.32 5 4.64 5 6 5 C5.52 11.36 5.52 11.36 3.375 14 C-0.11581787 15.46981805 -2.39148956 14.98413921 -6 14 C-8.5881216 11.74582958 -8.94242643 10.39479021 -9.4375 7 C-9 4 -9 4 -7.3125 1.625 C-4.61209763 -0.27258004 -3.22939919 -0.35882213 0 0 Z " fill="#0A0B0B" transform="translate(107,80)"/>
<path d="M0 0 C1.11375 0.1546875 1.11375 0.1546875 2.25 0.3125 C1.9375 2.25 1.9375 2.25 1.25 4.3125 C0.26 4.6425 -0.73 4.9725 -1.75 5.3125 C-1.42 6.9625 -1.09 8.6125 -0.75 10.3125 C0.57 10.3125 1.89 10.3125 3.25 10.3125 C3.58 8.6625 3.91 7.0125 4.25 5.3125 C5.24 4.9825 6.23 4.6525 7.25 4.3125 C7.58 4.6425 7.91 4.9725 8.25 5.3125 C8.125 8.6875 8.125 8.6875 7.25 12.3125 C5 14.3125 5 14.3125 2.25 15.3125 C-1.2841312 15.06006206 -2.75316126 14.31039249 -5.75 12.3125 C-6.92341001 8.16645129 -7.23816666 6.19495512 -5.125 2.375 C-2.75 0.3125 -2.75 0.3125 0 0 Z " fill="#090A0A" transform="translate(28.75,79.6875)"/>
<path d="M0 0 C3.3 0 6.6 0 10 0 C10 3.3 10 6.6 10 10 C6.7 10 3.4 10 0 10 C0 6.7 0 3.4 0 0 Z " fill="#85F7F3" transform="translate(40,41)"/>
<path d="M0 0 C3.3 0 6.6 0 10 0 C10 3.3 10 6.6 10 10 C6.7 10 3.4 10 0 10 C0 6.7 0 3.4 0 0 Z " fill="#85F7F3" transform="translate(20,41)"/>
<path d="M0 0 C6.6 0 13.2 0 20 0 C20 1.65 20 3.3 20 5 C13.73 5 7.46 5 1 5 C0.67 3.35 0.34 1.7 0 0 Z " fill="#FD963A" transform="translate(43,80)"/>
<path d="M0 0 C1.98 0 3.96 0 6 0 C6 5.28 6 10.56 6 16 C4.02 16 2.04 16 0 16 C0 10.72 0 5.44 0 0 Z " fill="#00CFD4" transform="translate(77,41)"/>
<path d="M0 0 C1.98 0 3.96 0 6 0 C6 5.28 6 10.56 6 16 C4.02 16 2.04 16 0 16 C0 10.72 0 5.44 0 0 Z " fill="#84F4F0" transform="translate(67,41)"/>
<path d="M0 0 C2.64 0 5.28 0 8 0 C8 3.96 8 7.92 8 12 C5.36 11.67 2.72 11.34 0 11 C0 7.37 0 3.74 0 0 Z " fill="#00C0C4" transform="translate(94,40)"/>
<path d="M0 0 C-0.33 1.32 -0.66 2.64 -1 4 C-2.1446875 3.87625 -2.1446875 3.87625 -3.3125 3.75 C-6.09261348 3.72011287 -6.09261348 3.72011287 -7.75 5.75 C-8.92994352 7.87389833 -9.57496962 9.61982989 -10 12 C-10.99 12 -11.98 12 -13 12 C-13.35671933 8.16526716 -13.29771416 6.44657125 -11.125 3.1875 C-7.53318706 -0.50995449 -5.03415735 -0.09322514 0 0 Z " fill="#566371" transform="translate(32,77)"/>
<path d="M0 0 C-0.33 2.31 -0.66 4.62 -1 7 C-3.375 7.625 -3.375 7.625 -6 8 C-6.66 7.34 -7.32 6.68 -8 6 C-7.875 3.5 -7.875 3.5 -7 1 C-4.12732844 -1.10662581 -3.46720491 -1.15573497 0 0 Z " fill="#DAD5C8" transform="translate(34,83)"/>
<path d="M0 0 C-0.33 2.31 -0.66 4.62 -1 7 C-5.75 8.125 -5.75 8.125 -8 7 C-8.3125 4.6875 -8.3125 4.6875 -8 2 C-3.92125984 -1.30708661 -3.92125984 -1.30708661 0 0 Z " fill="#DCD7C9" transform="translate(110,83)"/>
<path d="M0 0 C0.33 0.99 0.66 1.98 1 3 C2.32 3 3.64 3 5 3 C5 5.97 5 8.94 5 12 C3.68 12 2.36 12 1 12 C0.03929566 9.11788698 -0.10581883 7.30149956 -0.0625 4.3125 C-0.05347656 3.50425781 -0.04445313 2.69601563 -0.03515625 1.86328125 C-0.02355469 1.24839844 -0.01195313 0.63351563 0 0 Z " fill="#353D45" transform="translate(119,73)"/>
<path d="M0 0 C1.32 0 2.64 0 4 0 C4 2.97 4 5.94 4 9 C2.68 9.33 1.36 9.66 0 10 C0 6.7 0 3.4 0 0 Z " fill="#4A5561" transform="translate(4,76)"/>
<path d="M0 0 C0.33 0 0.66 0 1 0 C1 1.98 1 3.96 1 6 C2.32 6 3.64 6 5 6 C4.67 7.98 4.34 9.96 4 12 C2.68 12 1.36 12 0 12 C0 8.04 0 4.08 0 0 Z " fill="#D68736" transform="translate(11,74)"/>
<path d="M0 0 C1.98 0 3.96 0 6 0 C6 1.65 6 3.3 6 5 C4.02 5 2.04 5 0 5 C0 3.35 0 1.7 0 0 Z " fill="#00D3D8" transform="translate(67,80)"/>
<path d="M0 0 C0.99 0 1.98 0 3 0 C3 3.3 3 6.6 3 10 C2.01 10 1.02 10 0 10 C0 6.7 0 3.4 0 0 Z " fill="#81F6F2" transform="translate(7,41)"/>
<path d="M0 0 C1.5 1.3125 1.5 1.3125 3 3 C3 3.99 3 4.98 3 6 C-0.3 6 -3.6 6 -7 6 C-7 5.67 -7 5.34 -7 5 C-5.35 5 -3.7 5 -2 5 C-1.34 3.35 -0.68 1.7 0 0 Z " fill="#D88937" transform="translate(99,31)"/>
<path d="M0 0 C1.65 0 3.3 0 5 0 C4.67 1.65 4.34 3.3 4 5 C2.68 5 1.36 5 0 5 C0 3.35 0 1.7 0 0 Z " fill="#FA9539" transform="translate(87,80)"/>
</svg>
