<?xml version="1.0" encoding="UTF-8"?>
<svg version="1.1" xmlns="http://www.w3.org/2000/svg" width="128" height="128">
<path d="M0 0 C4.23301121 2.82200747 7.17159664 5.95228992 8.8125 10.875 C9.39927182 17.32948997 8.81051348 22.12880749 5.8125 27.875 C6.50085938 28.62330078 6.50085938 28.62330078 7.203125 29.38671875 C15.94572116 39.61702561 17.8973114 51.76315789 17.8125 64.875 C17.4825 65.535 17.1525 66.195 16.8125 66.875 C19.1225 66.875 21.4325 66.875 23.8125 66.875 C23.78631592 66.08327393 23.76013184 65.29154785 23.7331543 64.47583008 C23.62905878 60.87992283 23.564131 57.28433269 23.5 53.6875 C23.45810547 52.44162109 23.41621094 51.19574219 23.37304688 49.91210938 C23.25343693 40.98920747 23.25343693 40.98920747 25.484375 36.54296875 C30.94121752 33.80814275 36.36789207 34.23625315 42.375 34.375 C43.60669922 34.37242188 44.83839844 34.36984375 46.10742188 34.3671875 C54.93856968 34.46343979 54.93856968 34.46343979 58.1640625 35.98242188 C60.60865391 38.7890677 60.31416946 40.94794042 60.30859375 44.625 C60.31004898 45.27952148 60.31150421 45.93404297 60.31300354 46.60839844 C60.31134579 47.99027972 60.29979793 49.3721797 60.27905273 50.75390625 C60.25009607 52.86798592 60.25844292 54.97955736 60.27148438 57.09375 C60.26524657 58.43751218 60.25685528 59.78126644 60.24609375 61.125 C60.23634521 62.34703125 60.22659668 63.5690625 60.21655273 64.828125 C59.8125 67.875 59.8125 67.875 58.48144531 69.77856445 C55.79103408 71.54606545 53.28171521 71.15626382 50.125 71.0625 C48.35576172 71.02189453 48.35576172 71.02189453 46.55078125 70.98046875 C45.64714844 70.94566406 44.74351563 70.91085938 43.8125 70.875 C43.833125 72.15375 43.85375 73.4325 43.875 74.75 C43.9375 78.625 43.9375 78.625 42.8125 80.875 C43.31067448 82.78397111 43.81077204 84.6924731 44.32324219 86.59765625 C45.13034485 90.35446942 45.02367981 94.04994244 44.9375 97.875 C44.92847656 98.64972656 44.91945313 99.42445312 44.91015625 100.22265625 C44.88689388 102.10690843 44.8510364 103.99099832 44.8125 105.875 C43.1625 106.205 41.5125 106.535 39.8125 106.875 C39.7196875 108.2053125 39.7196875 108.2053125 39.625 109.5625 C38.35907149 114.72359315 35.35141591 116.88325419 31 119.6875 C25.84903734 121.60648609 21.80163417 121.57704735 16.625 119.75 C12.54165254 117.02776836 9.34660598 114.13593941 8.17578125 109.1796875 C8.05589844 108.41914062 7.93601562 107.65859375 7.8125 106.875 C2.43687333 106.94372358 -2.93796399 107.03161316 -8.31298828 107.13745117 C-10.1423265 107.17075026 -11.9717687 107.19876657 -13.80126953 107.22143555 C-16.42786056 107.25489077 -19.05349441 107.30719963 -21.6796875 107.36328125 C-22.91100906 107.37286613 -22.91100906 107.37286613 -24.16720581 107.38264465 C-26.71364374 107.41442217 -26.71364374 107.41442217 -30.1875 107.875 C-30.8475 108.865 -31.5075 109.855 -32.1875 110.875 C-32.80625 110.99875 -33.425 111.1225 -34.0625 111.25 C-36.44021511 111.71653622 -36.44021511 111.71653622 -37.9375 114.25 C-40.91730632 117.72644071 -43.6836643 119.11378833 -48.1875 119.875 C-53.82778007 119.57418506 -58.1985008 117.98487796 -62.1875 113.875 C-64.47621935 110.60540093 -64.36569397 107.79526737 -64.1875 103.875 C-65.5075 103.545 -66.8275 103.215 -68.1875 102.875 C-68.83860451 98.53430324 -68.03196503 96.1666161 -65.5625 92.6875 C-62.04421502 88.35158541 -58.60065815 86.30936847 -53.0625 85.3125 C-48.9044289 83.23346445 -48.33336875 80.24485095 -46.8515625 75.9921875 C-46.63242187 75.29351562 -46.41328125 74.59484375 -46.1875 73.875 C-45.5275 73.875 -44.8675 73.875 -44.1875 73.875 C-44.414375 72.92625 -44.64125 71.9775 -44.875 71 C-45.63930658 65.97003643 -43.85873859 61.56768689 -42.1875 56.875 C-43.6725 56.38 -43.6725 56.38 -45.1875 55.875 C-45.1875 50.925 -45.1875 45.975 -45.1875 40.875 C-40.05041587 39.84758317 -39.02721417 40.009398 -34.4375 41.8125 C-28.09842901 44.0658721 -22.7924402 45.05052398 -16.3125 42.9375 C-15.61125 42.586875 -14.91 42.23625 -14.1875 41.875 C-13.1975 41.545 -12.2075 41.215 -11.1875 40.875 C-10.60189551 37.58658857 -10.60189551 37.58658857 -11.1875 33.875 C-12.81731129 32.38100632 -14.54713288 31.34609056 -16.4296875 30.19140625 C-19.44550676 27.93289272 -20.08885565 25.42943761 -21.1875 21.875 C-21.1875 20.555 -21.1875 19.235 -21.1875 17.875 C-22.1775 17.545 -23.1675 17.215 -24.1875 16.875 C-23.7877577 11.07873667 -23.17590132 7.37473483 -19.1875 2.875 C-13.06034968 -1.49959513 -7.18984121 -2.53759102 0 0 Z M-27.1875 55.875 C-31.10942067 67.47024373 -33.43619639 80.60511697 -28.11328125 92.21875 C-27.80777344 92.7653125 -27.50226562 93.311875 -27.1875 93.875 C-26.1975 93.875 -25.2075 93.875 -24.1875 93.875 C-23.94 93.111875 -23.6925 92.34875 -23.4375 91.5625 C-22.1875 88.875 -22.1875 88.875 -20.140625 87.65625 C-17.83998803 85.93761397 -17.83998803 85.93761397 -17.71875 82.58203125 C-17.7084375 81.29683594 -17.698125 80.01164062 -17.6875 78.6875 C-17.48911455 72.68058977 -16.9788378 67.72641581 -13.1875 62.875 C-10.4375 60.375 -10.4375 60.375 -8.1875 58.875 C-8.5175 57.885 -8.8475 56.895 -9.1875 55.875 C-15.1275 55.875 -21.0675 55.875 -27.1875 55.875 Z " fill="#080605" transform="translate(68.1875,4.125)"/>
<path d="M0 0 C0.96486328 0.19916016 0.96486328 0.19916016 1.94921875 0.40234375 C6.21909098 1.2388232 10.47226065 1.36506928 14.8125 1.5625 C15.69615234 1.60568359 16.57980469 1.64886719 17.49023438 1.69335938 C19.65999623 1.79891536 21.8299791 1.89991071 24 2 C25.94158017 5.51624755 26.18311068 7.9715651 26 12 C25.39671875 11.65066406 24.7934375 11.30132812 24.171875 10.94140625 C23.37265625 10.48636719 22.5734375 10.03132813 21.75 9.5625 C20.96109375 9.11003906 20.1721875 8.65757813 19.359375 8.19140625 C14.7739436 5.87591523 10.09641823 5.3352498 5 6 C-0.23958893 7.74652964 -4.11694219 10.19490364 -7 15 C-7.99 17.97 -8.98 20.94 -10 24 C-19.57 24 -29.14 24 -39 24 C-39.33 22.35 -39.66 20.7 -40 19 C-32.74 18.67 -25.48 18.34 -18 18 C-17.67 12.72 -17.34 7.44 -17 2 C-9.0625 1.5625 -9.0625 1.5625 -6.55883789 1.43188477 C-2.97955708 1.53795177 -2.97955708 1.53795177 0 0 Z " fill="#F8D979" transform="translate(82,83)"/>
<path d="M0 0 C4.04424238 2.2891938 5.7375426 4.0125639 8.3125 7.875 C8.6425 9.855 8.9725 11.835 9.3125 13.875 C-1.2475 13.875 -11.8075 13.875 -22.6875 13.875 C-21.56122709 5.99108961 -21.56122709 5.99108961 -17.75 3 C-17.03972656 2.42507812 -16.32945313 1.85015625 -15.59765625 1.2578125 C-10.65571326 -2.3197904 -5.58542368 -1.70402756 0 0 Z " fill="#FC7E84" transform="translate(98.6875,93.125)"/>
<path d="M0 0 C1.65 0 3.3 0 5 0 C4.7834375 0.93005859 4.7834375 0.93005859 4.5625 1.87890625 C1.61379858 15.94666927 2.56812282 28.66837889 7.4140625 42.0546875 C8 44 8 44 8 47 C2.99051517 46.09984754 0.54408098 43.05229193 -2.875 39.5 C-3.49375 38.9121875 -4.1125 38.324375 -4.75 37.71875 C-6.53159422 35.86525287 -7.86698561 34.31158412 -9 32 C-8.91470053 28.78762214 -7.98611551 26.0360274 -7 23 C-6.76432107 20.25936765 -6.76432107 20.25936765 -6.875 17.9375 C-6.936875 15.9884375 -6.936875 15.9884375 -7 14 C-6.01 13.67 -5.02 13.34 -4 13 C-2.74359742 9.98359945 -2.74359742 9.98359945 -1.8125 6.4375 C-1.46832031 5.23996094 -1.12414062 4.04242188 -0.76953125 2.80859375 C-0.51558594 1.88175781 -0.26164062 0.95492187 0 0 Z " fill="#F87B81" transform="translate(31,60)"/>
<path d="M0 0 C7.46493903 8.15178572 9.45263496 17.28763935 9 28 C3.39 28 -2.22 28 -8 28 C-9.455276 25.08944799 -9.45067148 23.21908202 -9 20 C-6.125 17.8125 -6.125 17.8125 -3 16 C-0.67961905 13.17431454 -0.67961905 13.17431454 -1.1875 9.9375 C-1.73754498 6.70259047 -1.73754498 6.70259047 -5 5 C-6.65549531 4.61500109 -8.3222433 4.27206865 -10 4 C-10 3.01 -10 2.02 -10 1 C-6.39151981 -1.35939089 -4.03228312 -1.53226759 0 0 Z " fill="#E7E5E7" transform="translate(72,36)"/>
<path d="M0 0 C0.88945313 0.00966797 1.77890625 0.01933594 2.6953125 0.02929688 C3.61570312 0.05443359 4.53609375 0.07957031 5.484375 0.10546875 C6.42023438 0.11900391 7.35609375 0.13253906 8.3203125 0.14648438 C10.62558827 0.18176921 12.9296856 0.23106594 15.234375 0.29296875 C14.984375 3.16796875 14.984375 3.16796875 14.234375 6.29296875 C10.37342491 9.44775932 4.78473465 8.73789157 0.03515625 8.94921875 C-1.35123047 9.119375 -1.35123047 9.119375 -2.765625 9.29296875 C-4.11654028 11.9947993 -4.10420558 14.41105081 -4.328125 17.41796875 C-4.41191406 18.51367188 -4.49570312 19.609375 -4.58203125 20.73828125 C-4.64261719 21.58132812 -4.70320313 22.424375 -4.765625 23.29296875 C-7.075625 23.29296875 -9.385625 23.29296875 -11.765625 23.29296875 C-11.84727996 21.0852607 -11.90510988 18.8766645 -11.953125 16.66796875 C-12.00533203 14.82332031 -12.00533203 14.82332031 -12.05859375 12.94140625 C-11.67871589 8.21066058 -10.50675425 4.88151151 -6.95483398 1.64086914 C-4.38724648 0.06000033 -2.98942808 -0.057489 0 0 Z " fill="#F37A7F" transform="translate(65.765625,66.70703125)"/>
<path d="M0 0 C4.31455798 2.28417775 7.13452098 4.43994016 9 9 C9.55030372 13.95273351 9.52164446 16.0106743 7.1875 20.4375 C5 23 5 23 2 24 C1.93941406 23.21753906 1.87882812 22.43507813 1.81640625 21.62890625 C1.69072266 20.11103516 1.69072266 20.11103516 1.5625 18.5625 C1.48128906 17.55316406 1.40007812 16.54382813 1.31640625 15.50390625 C1.26788532 13.06359221 1.26788532 13.06359221 0 12 C-2.52596259 11.76346477 -5.03107207 11.57826308 -7.5625 11.4375 C-8.27341797 11.39431641 -8.98433594 11.35113281 -9.71679688 11.30664062 C-11.47761912 11.20028223 -13.2387832 11.09961154 -15 11 C-14.26867264 6.15698769 -12.74908279 4.21349954 -9 1 C-5.64870516 -0.11709828 -3.51689744 -0.34479387 0 0 Z " fill="#F97C82" transform="translate(64,7)"/>
<path d="M0 0 C8.91 0 17.82 0 27 0 C27 2.64 27 5.28 27 8 C26 9 26 9 23.49975586 9.11352539 C22.41573486 9.10828857 21.33171387 9.10305176 20.21484375 9.09765625 C19.04501953 9.09443359 17.87519531 9.09121094 16.66992188 9.08789062 C14.82237305 9.07532227 14.82237305 9.07532227 12.9375 9.0625 C11.08415039 9.05573242 11.08415039 9.05573242 9.19335938 9.04882812 C6.12885883 9.03699608 3.06445279 9.02051173 0 9 C0 6.03 0 3.06 0 0 Z " fill="#FFDF7C" transform="translate(97,62)"/>
<path d="M0 0 C2.70661459 1.95836327 4.77778874 4.34087266 6.9375 6.875 C7.52595703 7.52597656 8.11441406 8.17695312 8.72070312 8.84765625 C13 13.66869919 13 13.66869919 13 16 C6.65594974 15.35521919 0.6670882 14.03753669 -5.5 12.4375 C-6.4178125 12.20353516 -7.335625 11.96957031 -8.28125 11.72851562 C-10.52197923 11.15666285 -12.76147688 10.58041707 -15 10 C-14.40532842 5.46372319 -14.40532842 5.46372319 -12.6171875 3.41796875 C-12.04226562 3.01191406 -11.46734375 2.60585937 -10.875 2.1875 C-10.31554687 1.76855469 -9.75609375 1.34960938 -9.1796875 0.91796875 C-5.79371224 -0.50802441 -3.64746307 -0.55966365 0 0 Z " fill="#E1DFE1" transform="translate(20,94)"/>
<path d="M0 0 C1.74506836 0.00966797 1.74506836 0.00966797 3.52539062 0.01953125 C4.74033203 0.03628906 5.95527344 0.05304688 7.20703125 0.0703125 C8.43357422 0.07933594 9.66011719 0.08835937 10.92382812 0.09765625 C13.9559242 0.12125233 16.98763063 0.15417409 20.01953125 0.1953125 C20.01953125 2.1753125 20.01953125 4.1553125 20.01953125 6.1953125 C19.4147998 6.21513184 18.81006836 6.23495117 18.18701172 6.25537109 C15.42244616 6.35117549 12.65857951 6.46062805 9.89453125 6.5703125 C8.94320312 6.60125 7.991875 6.6321875 7.01171875 6.6640625 C2.00242777 6.87278296 -2.28413488 7.25036615 -6.98046875 9.1953125 C-6.98046875 8.2053125 -6.98046875 7.2153125 -6.98046875 6.1953125 C-12.26046875 6.1953125 -17.54046875 6.1953125 -22.98046875 6.1953125 C-22.98046875 5.2053125 -22.98046875 4.2153125 -22.98046875 3.1953125 C-22.00464844 3.14632812 -21.02882813 3.09734375 -20.0234375 3.046875 C-18.75113281 2.97210938 -17.47882813 2.89734375 -16.16796875 2.8203125 C-14.27111328 2.71589844 -14.27111328 2.71589844 -12.3359375 2.609375 C-7.60452684 2.02552223 -5.01657105 -0.04894216 0 0 Z " fill="#6A616C" transform="translate(87.98046875,74.8046875)"/>
<path d="M0 0 C1.12019531 -0.00128906 2.24039063 -0.00257812 3.39453125 -0.00390625 C4.57402344 -0.00003906 5.75351563 0.00382812 6.96875 0.0078125 C8.73798828 0.00201172 8.73798828 0.00201172 10.54296875 -0.00390625 C12.22326172 -0.00197266 12.22326172 -0.00197266 13.9375 0 C14.97326172 0.00112793 16.00902344 0.00225586 17.07617188 0.00341797 C19.46875 0.1328125 19.46875 0.1328125 20.46875 1.1328125 C20.46875 3.1128125 20.46875 5.0928125 20.46875 7.1328125 C11.55875 7.1328125 2.64875 7.1328125 -6.53125 7.1328125 C-6.53125 0.00711244 -6.53125 0.00711244 0 0 Z " fill="#FEDF7C" transform="translate(103.53125,42.8671875)"/>
<path d="M0 0 C7.59 0 15.18 0 23 0 C20.87969498 5.30076254 19.03294222 7.48352889 14 10 C8.7093024 10.60121564 6.15765529 9.21273363 2 6 C1.34 5.34 0.68 4.68 0 4 C0 2.68 0 1.36 0 0 Z " fill="#6A606C" transform="translate(81,111)"/>
<path d="M0 0 C1.65 0 3.3 0 5 0 C4.7834375 0.93005859 4.7834375 0.93005859 4.5625 1.87890625 C1.61379858 15.94666927 2.56812282 28.66837889 7.4140625 42.0546875 C8 44 8 44 8 47 C7.01 47 6.02 47 5 47 C4.18057052 44.48123707 3.36934931 41.9602933 2.5625 39.4375 C2.33240234 38.73302734 2.10230469 38.02855469 1.86523438 37.30273438 C-0.28357509 30.54488433 -1.13580014 24.1726138 -1.0625 17.0625 C-1.05347656 15.91910156 -1.04445313 14.77570313 -1.03515625 13.59765625 C-1.02355469 12.74042969 -1.01195313 11.88320312 -1 11 C-1.66 11 -2.32 11 -3 11 C-2.69078116 9.54096742 -2.37751201 8.08279278 -2.0625 6.625 C-1.88847656 5.81289062 -1.71445312 5.00078125 -1.53515625 4.1640625 C-1 2 -1 2 0 0 Z " fill="#ED6670" transform="translate(31,60)"/>
<path d="M0 0 C7.11484687 0.3856646 13.35441866 1.39099399 20 4 C18.203125 7.84375 18.203125 7.84375 16.375 9.25 C12.87160321 10.35633583 9.59463635 10.69895707 6 10 C1.96454364 6.99487293 0.77497215 4.85377293 0 0 Z " fill="#645B66" transform="translate(8,109)"/>
<path d="M0 0 C2.625 -0.0625 2.625 -0.0625 6 1 C12.07613805 7.54241243 15.15017456 15.72881217 15.1875 24.5625 C15.0946875 26.7590625 15.0946875 26.7590625 15 29 C9.39 29 3.78 29 -2 29 C-2 28.67 -2 28.34 -2 28 C2.29 28 6.58 28 11 28 C9.11987159 12.29117148 9.11987159 12.29117148 0 0 Z " fill="#C2C1C3" transform="translate(66,35)"/>
<path d="M0 0 C0.96486328 0.19916016 0.96486328 0.19916016 1.94921875 0.40234375 C6.21909098 1.2388232 10.47226065 1.36506928 14.8125 1.5625 C15.69615234 1.60568359 16.57980469 1.64886719 17.49023438 1.69335938 C19.65999623 1.79891536 21.8299791 1.89991071 24 2 C25.94158017 5.51624755 26.18311068 7.9715651 26 12 C22.69132469 9.79421646 21.88343932 8.76687864 20 5 C1.685 4.505 1.685 4.505 -17 4 C-17 3.34 -17 2.68 -17 2 C-15.85660156 1.93941406 -14.71320313 1.87882812 -13.53515625 1.81640625 C-12.04425695 1.73201572 -10.55337225 1.64736698 -9.0625 1.5625 C-8.30775391 1.52318359 -7.55300781 1.48386719 -6.77539062 1.44335938 C-3.08055813 1.55961976 -3.08055813 1.55961976 0 0 Z " fill="#F6BB65" transform="translate(82,83)"/>
<path d="M0 0 C9.24 0 18.48 0 28 0 C28 1.32 28 2.64 28 4 C18.76 4 9.52 4 0 4 C0 2.68 0 1.36 0 0 Z " fill="#FE7F85" transform="translate(96,54)"/>
<path d="M0 0 C1.0209375 0.433125 1.0209375 0.433125 2.0625 0.875 C1.73712254 3.91185633 1.11013274 4.83133666 -1.1875 6.9375 C-2.54875 7.8965625 -2.54875 7.8965625 -3.9375 8.875 C-4.700625 9.4525 -5.46375 10.03 -6.25 10.625 C-9.99085862 12.36493424 -12.83555714 12.08357337 -16.9375 11.875 C-16.9375 10.555 -16.9375 9.235 -16.9375 7.875 C-15.926875 7.66875 -14.91625 7.4625 -13.875 7.25 C-10.60567471 6.35836583 -8.76208356 5.00787476 -6.3125 2.6875 C-3.28006602 -0.13957728 -3.28006602 -0.13957728 0 0 Z " fill="#E66B73" transform="translate(65.9375,44.125)"/>
<path d="M0 0 C3.3 0 6.6 0 10 0 C10 3.63 10 7.26 10 11 C5 11 5 11 2.1875 8.875 C-0.33329645 5.56195324 -0.47183746 4.05780213 0 0 Z " fill="#FAE5DC" transform="translate(52,22)"/>
<path d="M0 0 C6.02837548 0.93543758 9.11530933 2.24814376 12.87890625 7.11328125 C14.40745182 9.68571159 14.8552553 12.03273359 15 15 C13.02 15 11.04 15 9 15 C8.76925781 14.33613281 8.53851563 13.67226562 8.30078125 12.98828125 C6.2740913 7.5009982 4.51361854 3.76134878 0 0 Z " fill="#F0636F" transform="translate(93,92)"/>
<path d="M0 0 C5.29877676 -0.50464541 7.90716575 0.63478073 12 4 C14.96660213 7.55992256 15.46259376 10.5658155 15.30078125 15.0625 C14.86592989 17.86362046 13.72816458 19.78794934 12 22 C11.67 22 11.34 22 11 22 C11.04640625 21.27554687 11.0928125 20.55109375 11.140625 19.8046875 C11.3707038 13.64186241 11.31835861 9.79817623 7 5 C5.02329393 3.24577228 5.02329393 3.24577228 3 2 C2.01 1.34 1.02 0.68 0 0 Z " fill="#E15E69" transform="translate(58,7)"/>
<path d="M0 0 C1.51400391 0.01740234 1.51400391 0.01740234 3.05859375 0.03515625 C4.07050781 0.04417969 5.08242188 0.05320312 6.125 0.0625 C7.29869141 0.07990234 7.29869141 0.07990234 8.49609375 0.09765625 C8.49609375 1.74765625 8.49609375 3.39765625 8.49609375 5.09765625 C4.20609375 5.09765625 -0.08390625 5.09765625 -4.50390625 5.09765625 C-3.26129105 0.12719544 -3.26129105 0.12719544 0 0 Z " fill="#605862" transform="translate(52.50390625,93.90234375)"/>
<path d="M0 0 C7.59 0 15.18 0 23 0 C21 5 21 5 19 6 C19 4.68 19 3.36 19 2 C13.06 2 7.12 2 1 2 C0.67 2.66 0.34 3.32 0 4 C0 2.68 0 1.36 0 0 Z " fill="#5A515D" transform="translate(81,111)"/>
<path d="M0 0 C2.97 0.99 5.94 1.98 9 3 C9 4.32 9 5.64 9 7 C6.03 7 3.06 7 0 7 C0 4.69 0 2.38 0 0 Z " fill="#F6D375" transform="translate(27,49)"/>
<path d="M0 0 C4.14581887 -0.02886751 8.29161216 -0.04675327 12.4375 -0.0625 C14.21350586 -0.07506836 14.21350586 -0.07506836 16.02539062 -0.08789062 C17.15009766 -0.09111328 18.27480469 -0.09433594 19.43359375 -0.09765625 C20.47572021 -0.10289307 21.51784668 -0.10812988 22.59155273 -0.11352539 C25 0 25 0 26 1 C26.04080783 2.99958364 26.04254356 5.00045254 26 7 C24.68 7 23.36 7 22 7 C21.67 5.35 21.34 3.7 21 2 C14.07 1.67 7.14 1.34 0 1 C0 0.67 0 0.34 0 0 Z " fill="#D7AD5F" transform="translate(98,43)"/>
<path d="M0 0 C5.94 0 11.88 0 18 0 C19.9955516 3.99110319 20.19546065 5.69986566 20 10 C15.64808179 7.38884907 15.81551549 6.44654648 14 1 C9.38 1 4.76 1 0 1 C0 0.67 0 0.34 0 0 Z " fill="#EBB361" transform="translate(88,85)"/>
<path d="M0 0 C2.64 0 5.28 0 8 0 C8 1.98 8 3.96 8 6 C5.36 6 2.72 6 0 6 C0 4.02 0 2.04 0 0 Z " fill="#5D5360" transform="translate(100,75)"/>
<path d="M0 0 C0.33 0.99 0.66 1.98 1 3 C8.59 3 16.18 3 24 3 C24 2.01 24 1.02 24 0 C25.32 0 26.64 0 28 0 C28 1.32 28 2.64 28 4 C18.76 4 9.52 4 0 4 C0 2.68 0 1.36 0 0 Z " fill="#DB666D" transform="translate(96,54)"/>
<path d="M0 0 C6.6 0 13.2 0 20 0 C19.67 1.98 19.34 3.96 19 6 C17.68 6.33 16.36 6.66 15 7 C15.33 5.02 15.66 3.04 16 1 C10.72 1 5.44 1 0 1 C0 0.67 0 0.34 0 0 Z " fill="#CA5961" transform="translate(61,67)"/>
<path d="M0 0 C1.32 0 2.64 0 4 0 C4 2.64 4 5.28 4 8 C2.35 8.33 0.7 8.66 -1 9 C-0.67 6.03 -0.34 3.06 0 0 Z " fill="#FDC068" transform="translate(120,62)"/>
<path d="M0 0 C3.98069267 2.87494471 6.43571997 5.82117329 9 10 C5.17647894 8.4422692 2.70794407 6.08404742 0 3 C0 2.01 0 1.02 0 0 Z " fill="#C8C7C9" transform="translate(19,94)"/>
</svg>
