<?xml version="1.0" encoding="UTF-8"?>
<svg version="1.1" xmlns="http://www.w3.org/2000/svg" width="128" height="128">
<path d="M0 0 C2.93514618 0.01841526 5.86997739 0.02050774 8.80517578 0.02026367 C10.70491805 0.02517564 12.60465822 0.03100256 14.50439453 0.0378418 C15.79535538 0.03951103 15.79535538 0.03951103 17.11239624 0.04121399 C34.78801641 0.17732243 34.78801641 0.17732243 39.18896484 4.48071289 C42.10670212 8.19677843 44.24482059 12.33937636 46.41845703 16.51831055 C46.91603516 17.4496582 47.41361328 18.38100586 47.92626953 19.34057617 C49.14363734 21.62314081 50.34883591 23.91128333 51.54345703 26.20581055 C52.20345703 24.88581055 52.86345703 23.56581055 53.54345703 22.20581055 C55.43064453 22.14393555 55.43064453 22.14393555 57.35595703 22.08081055 C58.4175 22.04600586 58.4175 22.04600586 59.50048828 22.01049805 C61.54345703 22.20581055 61.54345703 22.20581055 64.54345703 24.20581055 C64.73095703 26.83081055 64.73095703 26.83081055 64.54345703 29.20581055 C60.68558737 31.02127862 57.77639707 31.29961531 53.54345703 31.20581055 C54.28402344 32.66954102 54.28402344 32.66954102 55.03955078 34.1628418 C55.68679234 35.4479446 56.33392191 36.7331038 56.98095703 38.01831055 C57.30644531 38.6609082 57.63193359 39.30350586 57.96728516 39.96557617 C61.16352604 46.32510701 61.73664987 50.79204848 61.73095703 57.76831055 C61.73087646 58.66912354 61.7307959 59.56993652 61.73071289 60.49804688 C61.59623202 76.15303556 61.59623202 76.15303556 58.54345703 79.20581055 C58.25807381 82.53528148 58.0945307 85.86478682 57.92236328 89.2019043 C57.54345703 92.20581055 57.54345703 92.20581055 55.54345703 94.20581055 C52.57470703 94.47143555 52.57470703 94.47143555 49.04345703 94.45581055 C47.87814453 94.4609668 46.71283203 94.46612305 45.51220703 94.47143555 C42.54345703 94.20581055 42.54345703 94.20581055 40.54345703 92.20581055 C40.54345703 89.23581055 40.54345703 86.26581055 40.54345703 83.20581055 C1.43845703 83.70081055 1.43845703 83.70081055 -38.45654297 84.20581055 C-38.45654297 87.17581055 -38.45654297 90.14581055 -38.45654297 93.20581055 C-40.21214239 94.96140997 -42.49236738 94.33802974 -44.82763672 94.3425293 C-45.53017578 94.33866211 -46.23271484 94.33479492 -46.95654297 94.33081055 C-47.65908203 94.33467773 -48.36162109 94.33854492 -49.08544922 94.3425293 C-54.32992919 94.33242433 -54.32992919 94.33242433 -55.45654297 93.20581055 C-55.74203946 90.169578 -55.90523111 87.13323269 -56.07763672 84.08862305 C-56.26604449 81.01322221 -56.26604449 81.01322221 -58.45654297 78.20581055 C-62.52376236 66.78244744 -62.5458004 51.74216559 -57.59082031 40.74121094 C-55.98005802 37.49576415 -54.27529483 34.33990974 -52.45654297 31.20581055 C-53.39626953 31.11493164 -53.39626953 31.11493164 -54.35498047 31.0222168 C-55.17224609 30.93842773 -55.98951172 30.85463867 -56.83154297 30.76831055 C-58.04970703 30.64649414 -58.04970703 30.64649414 -59.29248047 30.5222168 C-61.45654297 30.20581055 -61.45654297 30.20581055 -63.45654297 29.20581055 C-63.64404297 26.83081055 -63.64404297 26.83081055 -63.45654297 24.20581055 C-60.36765775 22.14655373 -59.7471837 21.96677315 -56.26904297 22.08081055 C-55.01091797 22.12206055 -53.75279297 22.16331055 -52.45654297 22.20581055 C-51.79654297 23.52581055 -51.13654297 24.84581055 -50.45654297 26.20581055 C-50.17979736 25.65642822 -49.90305176 25.1070459 -49.61791992 24.54101562 C-48.34497038 22.02823178 -47.05718587 19.52333738 -45.76904297 17.01831055 C-45.33398438 16.15399414 -44.89892578 15.28967773 -44.45068359 14.39916992 C-43.7980957 13.1375 -43.7980957 13.1375 -43.13232422 11.8503418 C-42.73956299 11.08052979 -42.34680176 10.31071777 -41.94213867 9.51757812 C-39.30707814 5.41710349 -37.03368208 2.65860365 -32.25488281 1.28662109 C-30.41724365 1.09773315 -30.41724365 1.09773315 -28.54248047 0.9050293 C-27.85552094 0.83426682 -27.1685614 0.76350433 -26.46078491 0.69059753 C-17.66481304 -0.11143124 -8.82428988 -0.05724266 0 0 Z " fill="#FC6F58" transform="translate(63.45654296875,16.794189453125)"/>
<path d="M0 0 C2.82161285 -0.01342028 5.64251632 -0.04144912 8.46386719 -0.08203125 C12.54496389 -0.14069105 16.62529149 -0.15862789 20.70678711 -0.17333984 C21.97033524 -0.19600922 23.23388336 -0.21867859 24.53572083 -0.24203491 C26.29356148 -0.23775986 26.29356148 -0.23775986 28.08691406 -0.23339844 C29.63171196 -0.24552872 29.63171196 -0.24552872 31.2077179 -0.25790405 C34.87892857 0.56932506 35.8800349 2.27303996 37.90600586 5.35009766 C38.98681641 7.33886719 38.98681641 7.33886719 39.79272461 9.23291016 C40.09114258 9.92513672 40.38956055 10.61736328 40.69702148 11.33056641 C40.99286133 12.03826172 41.28870117 12.74595703 41.59350586 13.47509766 C41.90094727 14.19052734 42.20838867 14.90595703 42.52514648 15.64306641 C43.75416905 18.5206466 44.91617766 21.38061306 45.90600586 24.35009766 C15.87600586 24.35009766 -14.15399414 24.35009766 -45.09399414 24.35009766 C-44.40262127 20.89323332 -43.88352129 18.52408779 -42.53540039 15.43212891 C-42.23182617 14.73539063 -41.92825195 14.03865234 -41.61547852 13.32080078 C-41.29901367 12.60859375 -40.98254883 11.89638672 -40.65649414 11.16259766 C-40.34389648 10.43878906 -40.03129883 9.71498047 -39.70922852 8.96923828 C-37.34901646 3.60511998 -37.34901646 3.60511998 -35.09399414 1.35009766 C-23.55211385 -0.51669558 -11.66257439 0.04962316 0 0 Z " fill="#324858" transform="translate(64.093994140625,20.64990234375)"/>
<path d="M0 0 C1.35568336 0.00333092 1.35568336 0.00333092 2.73875427 0.00672913 C3.75973709 0.00680466 4.78071991 0.00688019 5.8326416 0.00695801 C6.94304306 0.01211929 8.05344452 0.01728058 9.19749451 0.02259827 C10.89336952 0.02472069 10.89336952 0.02472069 12.62350464 0.02688599 C16.25105891 0.03250433 19.8785525 0.04505994 23.50608826 0.05775452 C25.95856133 0.06276715 28.41103536 0.06733047 30.86351013 0.07142639 C36.89022639 0.08247972 42.91689702 0.09975664 48.94358826 0.12025452 C48.94358826 3.75025452 48.94358826 7.38025452 48.94358826 11.12025452 C31.78358826 11.12025452 14.62358826 11.12025452 -3.05641174 11.12025452 C-3.05641174 0.17873236 -3.05641174 0.17873236 0 0 Z " fill="#3B5569" transform="translate(41.05641174316406,83.87974548339844)"/>
<path d="M0 0 C0.13720966 1.37209664 0.23299075 2.74835409 0.3125 4.125 C0.37050781 4.89070313 0.42851563 5.65640625 0.48828125 6.4453125 C-0.08318007 9.43519813 -1.14405563 11.53890308 -3.18823242 13.80908203 C-7.07213525 16.36206384 -11.84692914 15.59784999 -16.3125 15.375 C-17.85260742 15.33439453 -17.85260742 15.33439453 -19.42382812 15.29296875 C-21.95137576 15.22243254 -24.47460043 15.12393429 -27 15 C-26.76017605 10.92299281 -26.39218456 8.53034049 -23.9375 5.2109375 C-20.36183187 2.51967665 -17.3149419 1.57237654 -13 0.625 C-11.95199219 0.36009766 -11.95199219 0.36009766 -10.8828125 0.08984375 C-6.94644492 -0.83854483 -3.89512775 -1.17158139 0 0 Z " fill="#E2DDDF" transform="translate(119,60)"/>
<path d="M0 0 C19.1643965 1.89433903 19.1643965 1.89433903 24.625 7.875 C25.99977317 10.99948449 26.12410838 12.67163891 26 16 C22.417094 16.14533755 18.83494583 16.23407931 15.25 16.3125 C13.72632813 16.3753418 13.72632813 16.3753418 12.171875 16.43945312 C4.62156259 16.56363589 4.62156259 16.56363589 1.359375 13.60546875 C-1.09281672 8.90543463 -1.1691636 6.32865335 -1 1 C-0.67 0.67 -0.34 0.34 0 0 Z " fill="#E2DCDD" transform="translate(10,59)"/>
<path d="M0 0 C14.19 0 28.38 0 43 0 C43 1.98 43 3.96 43 6 C28.81 6 14.62 6 0 6 C0 4.02 0 2.04 0 0 Z " fill="#535867" transform="translate(42,69)"/>
<path d="M0 0 C0.05389087 1.95803507 0.09274217 3.91648909 0.125 5.875 C0.14820312 6.96554688 0.17140625 8.05609375 0.1953125 9.1796875 C0 12 0 12 -2 14 C-4.96875 14.265625 -4.96875 14.265625 -8.5 14.25 C-9.6653125 14.25515625 -10.830625 14.2603125 -12.03125 14.265625 C-15 14 -15 14 -17 12 C-17.1953125 9.8359375 -17.1953125 9.8359375 -17.125 7.375 C-17.10695313 6.55773437 -17.08890625 5.74046875 -17.0703125 4.8984375 C-17.04710938 4.27195312 -17.02390625 3.64546875 -17 3 C-16.18015625 2.95101562 -15.3603125 2.90203125 -14.515625 2.8515625 C-13.43796875 2.77679688 -12.3603125 2.70203125 -11.25 2.625 C-10.18265625 2.55539063 -9.1153125 2.48578125 -8.015625 2.4140625 C-5.28393568 2.03898599 -2.53792488 0 0 0 Z " fill="#2F4858" transform="translate(121,97)"/>
<path d="M0 0 C0.99 0.33 1.98 0.66 3 1 C5.39254576 1.22560676 7.78928123 1.40848595 10.1875 1.5625 C12.09595703 1.68818359 12.09595703 1.68818359 14.04296875 1.81640625 C15.01878906 1.87699219 15.99460937 1.93757813 17 2 C17.02688151 3.64574566 17.04634123 5.29161413 17.0625 6.9375 C17.07410156 7.85402344 17.08570312 8.77054688 17.09765625 9.71484375 C17 12 17 12 16 13 C13.48863896 13.09975032 11.01096585 13.13882183 8.5 13.125 C7.79746094 13.12886719 7.09492188 13.13273437 6.37109375 13.13671875 C1.12661378 13.12661378 1.12661378 13.12661378 0 12 C-0.07244053 9.98035801 -0.08377188 7.95832876 -0.0625 5.9375 C-0.05347656 4.83277344 -0.04445313 3.72804688 -0.03515625 2.58984375 C-0.02355469 1.73519531 -0.01195312 0.88054687 0 0 Z " fill="#314858" transform="translate(8,98)"/>
<path d="M0 0 C1.9375 1.125 1.9375 1.125 3 3 C2.77669287 6.64734979 2.61627165 8.38372835 0 11 C-3.13704316 11.333728 -5.16554166 11.52849028 -7.875 9.8125 C-9.40659584 7.34492892 -9.42822025 5.85480169 -9 3 C-6.73529086 -0.64869805 -4.03159541 -0.50394943 0 0 Z " fill="#ECE9EB" transform="translate(114,83)"/>
<path d="M0 0 C1.8125 1.125 1.8125 1.125 3 3 C3.39704314 6.17634515 3.49933741 8.14003001 1.875 10.9375 C0 12 0 12 -3.0625 11.875 C-6 11 -6 11 -8 8 C-8.35840349 5.13277207 -8.41121458 3.62764331 -6.8125 1.1875 C-4.35092224 -0.42525784 -2.88934264 -0.4334014 0 0 Z " fill="#EBEAEB" transform="translate(20,83)"/>
<path d="M0 0 C3.9857647 -0.09542346 5.6971647 0.10409938 9.12109375 2.38671875 C9.30859375 5.01171875 9.30859375 5.01171875 9.12109375 7.38671875 C4.62453271 9.63499927 1.04236409 9.55354147 -3.87890625 9.38671875 C-5.0015919 6.6310358 -4.91800329 5.5014034 -3.94140625 2.63671875 C-1.87890625 0.38671875 -1.87890625 0.38671875 0 0 Z " fill="#304858" transform="translate(118.87890625,38.61328125)"/>
<path d="M0 0 C1.8871875 0.061875 1.8871875 0.061875 3.8125 0.125 C5.375 2.9375 5.375 2.9375 6.8125 6.125 C6.4825 7.115 6.1525 8.105 5.8125 9.125 C0.89122966 9.29182272 -2.69093896 9.37328052 -7.1875 7.125 C-7.375 4.75 -7.375 4.75 -7.1875 2.125 C-4.09861478 0.06574319 -3.47814073 -0.1140374 0 0 Z " fill="#304858" transform="translate(7.1875,38.875)"/>
<path d="M0 0 C4.77420619 0.11441453 8.0620859 0.3161043 12 3.1875 C14.17757266 6.24971156 14.74082077 8.28509765 15 12 C12.36 12 9.72 12 7 12 C7.33 10.02 7.66 8.04 8 6 C5.69 6.33 3.38 6.66 1 7 C0.67 4.69 0.34 2.38 0 0 Z " fill="#E1E1E4" transform="translate(21,62)"/>
<path d="M0 0 C4.55555556 0.55555556 4.55555556 0.55555556 6 2 C6.125 4.5 6.125 4.5 6 7 C5 8 5 8 1.9375 8.0625 C0.968125 8.041875 -0.00125 8.02125 -1 8 C-1.625 5.125 -1.625 5.125 -2 2 C-1.34 1.34 -0.68 0.68 0 0 Z " fill="#BEBFC2" transform="translate(108,63)"/>
<path d="M0 0 C2.625 0.375 2.625 0.375 5 1 C6.125 5.75 6.125 5.75 5 8 C3.00045254 8.04254356 0.99958364 8.04080783 -1 8 C-2 7 -2 7 -2.1875 4.5625 C-2 2 -2 2 0 0 Z " fill="#BEBFC2" transform="translate(16,63)"/>
<path d="M0 0 C1.65 0.33 3.3 0.66 5 1 C4.67 2.65 4.34 4.3 4 6 C2.35 5.67 0.7 5.34 -1 5 C-0.67 3.35 -0.34 1.7 0 0 Z " fill="#BFC0C3" transform="translate(99,67)"/>
<path d="M0 0 C1.65 0.33 3.3 0.66 5 1 C4.67 2.65 4.34 4.3 4 6 C2.35 5.67 0.7 5.34 -1 5 C-0.67 3.35 -0.34 1.7 0 0 Z " fill="#BFC0C3" transform="translate(25,67)"/>
</svg>
