<?xml version="1.0" encoding="UTF-8"?>
<svg version="1.1" xmlns="http://www.w3.org/2000/svg" width="128" height="128">
<path d="M0 0 C2.01641786 0.00316473 4.03136898 -0.02041149 6.04760742 -0.0456543 C19.47637181 -0.05225969 31.00508529 2.05324716 41.4675293 10.90942383 C45.39372712 14.93045735 46.48675467 18.76888964 47.26049805 24.27661133 C47.37840481 26.30512729 47.37840481 26.30512729 48.5847168 27.31567383 C48.70986608 29.2918683 48.76044439 31.27305556 48.7722168 33.25317383 C48.78639648 34.33469727 48.80057617 35.4162207 48.81518555 36.53051758 C48.5847168 39.31567383 48.5847168 39.31567383 46.5847168 41.31567383 C43.9597168 41.44067383 43.9597168 41.44067383 41.5847168 41.31567383 C41.5228418 42.38817383 41.4609668 43.46067383 41.3972168 44.56567383 C40.5847168 48.31567383 40.5847168 48.31567383 38.5847168 50.75317383 C34.4734929 52.89443628 31.1266553 53.23364031 26.5847168 52.31567383 C23.79306092 50.95176711 22.70832465 49.75782285 20.5847168 47.31567383 C19.7097168 44.00317383 19.7097168 44.00317383 19.5847168 41.31567383 C18.9247168 41.31567383 18.2647168 41.31567383 17.5847168 41.31567383 C17.5847168 41.97567383 17.5847168 42.63567383 17.5847168 43.31567383 C-3.8652832 43.31567383 -25.3152832 43.31567383 -47.4152832 43.31567383 C-48.7352832 45.62567383 -50.0552832 47.93567383 -51.4152832 50.31567383 C-54.38782485 52.75740447 -57.66920851 52.67520105 -61.45043945 52.56958008 C-64.37156113 52.19209915 -66.15842844 51.1742601 -68.4152832 49.31567383 C-68.8174707 48.29473633 -68.8174707 48.29473633 -69.2277832 47.25317383 C-70.23056288 45.16249623 -70.23056288 45.16249623 -72.2746582 44.65161133 C-73.72225624 44.30767846 -75.17713877 43.99285548 -76.63793945 43.71020508 C-78.4152832 43.31567383 -78.4152832 43.31567383 -79.4152832 42.31567383 C-79.59636623 39.88144299 -79.69336438 37.50252617 -79.7277832 35.06567383 C-79.75678711 34.39665039 -79.78579102 33.72762695 -79.81567383 33.03833008 C-79.85862855 29.67464505 -79.49648536 27.46638838 -77.89575195 24.49536133 C-74.69717707 21.68464513 -71.4529169 20.71433063 -67.4152832 19.69067383 C-66.65634766 19.48031494 -65.89741211 19.26995605 -65.11547852 19.05322266 C-60.82514153 17.87904903 -56.51848252 16.9168801 -52.1652832 16.00317383 C-46.17638114 14.57372395 -41.5708479 11.57254988 -36.44262695 8.24926758 C-25.03201169 0.96119718 -13.3408394 -0.04364506 0 0 Z " fill="#DF4B4A" transform="translate(79.415283203125,37.684326171875)"/>
<path d="M0 0 C3.60116177 1.90692884 5.74894002 4.62341003 8 8 C8.54901961 14.03921569 8.54901961 14.03921569 6.75 17.1875 C5.88375 18.0846875 5.88375 18.0846875 5 19 C4.319375 19.721875 3.63875 20.44375 2.9375 21.1875 C-0.24642148 24.16600719 -2.62687456 24.28173322 -6.96484375 24.21875 C-9.93774757 23.89920564 -11.70998159 22.88589752 -14 21 C-15.1875 18.875 -15.1875 18.875 -16 17 C-16.66 16.67 -17.32 16.34 -18 16 C-18.66964286 8.23214286 -18.66964286 8.23214286 -15.6875 4.625 C-10.65266114 -0.29274958 -6.83722565 -1.06333214 0 0 Z " fill="#3F4448" transform="translate(25,66)"/>
<path d="M0 0 C2.59205026 2.08804049 4.44629328 4.00673399 6.25 6.8125 C6.5 9.625 6.5 9.625 6.25 11.8125 C5.59 11.8125 4.93 11.8125 4.25 11.8125 C4.1571875 13.42125 4.1571875 13.42125 4.0625 15.0625 C3.25 18.8125 3.25 18.8125 1.25 21.25 C-2.8612239 23.39126245 -6.20806149 23.73046648 -10.75 22.8125 C-13.54165587 21.44859329 -14.62639215 20.25464903 -16.75 17.8125 C-17.625 14.5 -17.625 14.5 -17.75 11.8125 C-18.41 11.8125 -19.07 11.8125 -19.75 11.8125 C-19.29713369 6.94418719 -18.16678531 4.32690774 -14.75 0.8125 C-10.43247962 -2.42564028 -4.73705621 -2.045547 0 0 Z " fill="#404549" transform="translate(116.75,67.1875)"/>
<path d="M0 0 C-0.99 4.29 -1.98 8.58 -3 13 C-13.41303106 14.41193641 -23.47329223 15.30028643 -34 15 C-30.14730354 7.59977116 -22.68700565 3.64975584 -14.9375 1.0625 C-9.90299205 -0.26279583 -5.1820763 -0.22208898 0 0 Z " fill="#5A5B5F" transform="translate(72,42)"/>
<path d="M0 0 C3.16719629 -0.08159761 6.33225152 -0.14078461 9.5 -0.1875 C10.386875 -0.21263672 11.27375 -0.23777344 12.1875 -0.26367188 C18.18491713 -0.32981986 22.54393782 0.46243955 28 3 C30.57719777 5.57719777 31 6.32379932 31 10 C20.58495206 11.30918672 10.51093462 12.24444034 0 12 C0 8.04 0 4.08 0 0 Z " fill="#5A5C60" transform="translate(76,42)"/>
<path d="M0 0 C2.375 1.625 2.375 1.625 4 4 C4.61195145 7.6717087 4.48706506 9.28813568 2.375 12.375 C-0.71186432 14.48706506 -2.3282913 14.61195145 -6 14 C-8.375 12.375 -8.375 12.375 -10 10 C-10.61195145 6.3282913 -10.48706506 4.71186432 -8.375 1.625 C-5.28813568 -0.48706506 -3.6717087 -0.61195145 0 0 Z " fill="#A5ACB1" transform="translate(23,72)"/>
<path d="M0 0 C2.375 1 2.375 1 4 3 C4.56641498 5.77427747 4.56641498 8.22572253 4 11 C1.81246717 13.6923481 0.41576045 13.93936827 -3 14.4375 C-6 14 -6 14 -8.375 12.375 C-10.48706506 9.28813568 -10.61195145 7.6717087 -10 4 C-7.20125452 -0.09047416 -4.83066808 -0.70447243 0 0 Z " fill="#ACB4BA" transform="translate(113,72)"/>
<path d="M0 0 C4.01021479 0.18228249 5.74282094 0.78754773 8.875 3.375 C11 6 11 6 11 9 C7.16275828 9.90413673 3.62497726 10.10576898 -0.3125 10.0625 C-1.38113281 10.05347656 -2.44976562 10.04445313 -3.55078125 10.03515625 C-4.35902344 10.02355469 -5.16726562 10.01195312 -6 10 C-5.18957164 8.51969728 -4.37659652 7.04078858 -3.5625 5.5625 C-2.88380859 4.32693359 -2.88380859 4.32693359 -2.19140625 3.06640625 C-1 1 -1 1 0 0 Z " fill="#474347" transform="translate(96,43)"/>
<path d="M0 0 C1.98 0 3.96 0 6 0 C5.01 4.29 4.02 8.58 3 13 C-0.63 13 -4.26 13 -8 13 C-6.85605098 11.01974361 -5.70978896 9.04082322 -4.5625 7.0625 C-3.92441406 5.96035156 -3.28632812 4.85820313 -2.62890625 3.72265625 C-1 1 -1 1 0 0 Z " fill="#404347" transform="translate(66,42)"/>
<path d="M0 0 C3.60116177 1.90692884 5.74894002 4.62341003 8 8 C8.125 10.6875 8.125 10.6875 8 13 C7.01 13 6.02 13 5 13 C4.731875 12.071875 4.46375 11.14375 4.1875 10.1875 C2.86196453 6.44337311 2.86196453 6.44337311 0 4 C-3.53119064 3.14989855 -6.18291657 2.8328693 -9.75 3.5625 C-13.5988409 6.02148168 -14.65777933 9.56889538 -15.6875 13.875 C-15.790625 14.57625 -15.89375 15.2775 -16 16 C-16.66 16 -17.32 16 -18 16 C-18.66964286 8.23214286 -18.66964286 8.23214286 -15.6875 4.625 C-10.65266114 -0.29274958 -6.83722565 -1.06333214 0 0 Z " fill="#3A3437" transform="translate(25,66)"/>
<path d="M0 0 C2.59205026 2.08804049 4.44629328 4.00673399 6.25 6.8125 C6.5 9.625 6.5 9.625 6.25 11.8125 C5.59 11.8125 4.93 11.8125 4.25 11.8125 C4.01925781 11.25820312 3.78851563 10.70390625 3.55078125 10.1328125 C1.53747704 5.55962422 1.53747704 5.55962422 -2.0625 2.25 C-5.65596651 1.66501708 -8.22841768 1.85206846 -11.75 2.8125 C-14.56685096 5.5552233 -16.17036243 7.89994639 -16.75 11.8125 C-17.74 11.8125 -18.73 11.8125 -19.75 11.8125 C-19.29713369 6.94418719 -18.16678531 4.32690774 -14.75 0.8125 C-10.43247962 -2.42564028 -4.73705621 -2.045547 0 0 Z " fill="#3A3437" transform="translate(116.75,67.1875)"/>
<path d="M0 0 C2.97 0 5.94 0 9 0 C7.88407791 2.00507927 6.75701288 4.00396096 5.625 6 C4.68527344 7.670625 4.68527344 7.670625 3.7265625 9.375 C3.15679687 10.24125 2.58703125 11.1075 2 12 C1.34 12 0.68 12 0 12 C0 8.04 0 4.08 0 0 Z " fill="#454447" transform="translate(76,42)"/>
<path d="M0 0 C0.66 0.33 1.32 0.66 2 1 C0.2476366 4.23513244 -1.53472551 7.25664682 -4 10 C-7.875 10.5625 -7.875 10.5625 -11 10 C-8.7057314 4.98128743 -4.95834368 2.21072648 0 0 Z " fill="#474447" transform="translate(49,47)"/>
<path d="M0 0 C4.70588235 0.70588235 4.70588235 0.70588235 6 2 C6.125 4.5 6.125 4.5 6 7 C5 8 5 8 2.5625 8.1875 C0 8 0 8 -2 6 C-1.44444444 1.44444444 -1.44444444 1.44444444 0 0 Z " fill="#C8D3DD" transform="translate(108,75)"/>
<path d="M0 0 C2.625 0.375 2.625 0.375 5 1 C5.625 3.375 5.625 3.375 6 6 C5.34 6.66 4.68 7.32 4 8 C1.375 7.625 1.375 7.625 -1 7 C-1.625 4.625 -1.625 4.625 -2 2 C-1.34 1.34 -0.68 0.68 0 0 Z " fill="#CAD5DE" transform="translate(18,75)"/>
<path d="M0 0 C0 0.99 0 1.98 0 3 C-3.85756507 5.15305957 -6.55129785 6.39253254 -11 6 C-8.60159776 0.46522561 -5.82500047 -0.25888891 0 0 Z " fill="#FCCB3C" transform="translate(14,61)"/>
<path d="M0 0 C1.98 0 3.96 0 6 0 C6 1.98 6 3.96 6 6 C4.02 6 2.04 6 0 6 C0 4.02 0 2.04 0 0 Z " fill="#FBC93C" transform="translate(120,56)"/>
<path d="M0 0 C0.66 0.33 1.32 0.66 2 1 C0.90902202 2.84121215 -0.19819251 4.67281256 -1.3125 6.5 C-2.23482422 8.03140625 -2.23482422 8.03140625 -3.17578125 9.59375 C-3.77777344 10.3878125 -4.37976562 11.181875 -5 12 C-5.99 12 -6.98 12 -8 12 C-6.85573734 10.186508 -5.70954608 8.37423275 -4.5625 6.5625 C-3.60537109 5.04849609 -3.60537109 5.04849609 -2.62890625 3.50390625 C-1 1 -1 1 0 0 Z " fill="#40464A" transform="translate(60,43)"/>
<path d="M0 0 C3.53677664 -0.32152515 5.3962104 -0.4131192 8.375 1.625 C10.4131192 4.6037896 10.32152515 6.46322336 10 10 C9.01 10.495 9.01 10.495 8 11 C8.0825 10.071875 8.165 9.14375 8.25 8.1875 C8.3236053 4.97694912 8.3236053 4.97694912 6.3125 3.125 C3.66729453 1.83814329 1.90566174 1.75786152 -1 2 C-0.67 1.34 -0.34 0.68 0 0 Z " fill="#B8C1CA" transform="translate(17,72)"/>
<path d="M0 0 C0.66 0.33 1.32 0.66 2 1 C1.05065487 2.67180274 0.09026687 4.33733936 -0.875 6 C-1.40867187 6.928125 -1.94234375 7.85625 -2.4921875 8.8125 C-2.98976563 9.534375 -3.48734375 10.25625 -4 11 C-4.66 11 -5.32 11 -6 11 C-4.54955729 6.89041233 -2.48889248 3.56741255 0 0 Z " fill="#41464A" transform="translate(91,42)"/>
<path d="M0 0 C6.64615385 1.47692308 6.64615385 1.47692308 8.4375 4.125 C8.7159375 5.053125 8.7159375 5.053125 9 6 C8.34 6.66 7.68 7.32 7 8 C6.6596875 7.071875 6.6596875 7.071875 6.3125 6.125 C4.62070165 3.38589791 3.00755839 2.94975528 0 2 C0 1.34 0 0.68 0 0 Z " fill="#A0A6AA" transform="translate(107,72)"/>
</svg>
