<?xml version="1.0" encoding="UTF-8"?>
<svg version="1.1" xmlns="http://www.w3.org/2000/svg" width="128" height="128">
<path d="M0 0 C3.56130707 1.74927638 6.96023124 3.63383283 10.359375 5.6796875 C11.91785156 6.61167969 11.91785156 6.61167969 13.5078125 7.5625 C20.62885774 11.97258432 26.29698591 15.94835003 30.734375 23.1796875 C31.31952881 24.10237427 31.31952881 24.10237427 31.91650391 25.04370117 C34.36715485 28.94237284 36.56473252 32.92932333 38.734375 36.9921875 C42.42423031 43.45158456 47.51163584 47.24771677 53.359375 51.6796875 C57.55547034 55.40955002 60.15593618 57.99496207 60.59765625 63.82421875 C60.79785796 73.71839794 60.79785796 73.71839794 58.734375 78.2421875 C49.7008447 87.51344229 38.19624544 94.3891972 25.359375 96.5546875 C21.69437225 97.20474915 19.28339357 98.17635297 16.234375 100.3046875 C12.02257524 103.17211481 9.41235365 103.42520894 4.359375 102.6796875 C0.156254 99.95262004 -1.3426119 97.58146741 -3.0859375 92.95703125 C-6.8594472 85.01819376 -13.05242744 82.05822461 -20.515625 78.2421875 C-21.77122784 77.57152609 -23.02515076 76.89770973 -24.27734375 76.22070312 C-26.66546438 74.93135249 -29.06057292 73.66150077 -31.46459961 72.40136719 C-34.18092424 70.92888496 -36.74848749 69.36918509 -39.32421875 67.66796875 C-42.47252205 65.27731447 -42.47252205 65.27731447 -45.828125 66.3046875 C-46.75625 66.7584375 -47.684375 67.2121875 -48.640625 67.6796875 C-51.81597698 68.68650642 -53.04635363 68.93225283 -56.140625 67.6171875 C-63.65484551 61.79366661 -66.89130367 54.48852889 -68.09765625 45.13671875 C-68.36297495 39.37991992 -68.44827707 34.90215459 -64.890625 30.1796875 C-64.38015625 29.633125 -63.8696875 29.0865625 -63.34375 28.5234375 C-61.47905969 26.66715652 -61.47905969 26.66715652 -60.1953125 23.8984375 C-56.86227548 18.79074909 -50.74174935 16.45001731 -45.515625 13.6796875 C-43.3247497 12.4936108 -41.13463592 11.3061263 -38.9453125 10.1171875 C-37.88280273 9.54484375 -36.82029297 8.9725 -35.72558594 8.3828125 C-32.03429312 6.34494778 -28.44033412 4.17341492 -24.86376953 1.94140625 C-17.04602511 -2.4954599 -8.47973921 -3.07527023 0 0 Z " fill="#C68002" transform="translate(67.640625,13.3203125)"/>
<path d="M0 0 C3.56130707 1.74927638 6.96023124 3.63383283 10.359375 5.6796875 C11.91785156 6.61167969 11.91785156 6.61167969 13.5078125 7.5625 C20.62885774 11.97258432 26.29698591 15.94835003 30.734375 23.1796875 C31.31952881 24.10237427 31.31952881 24.10237427 31.91650391 25.04370117 C34.36715485 28.94237284 36.56473252 32.92932333 38.734375 36.9921875 C42.42423031 43.45158456 47.51163584 47.24771677 53.359375 51.6796875 C59.04358553 56.73231908 59.04358553 56.73231908 60.359375 60.6796875 C60.39891734 63.01268575 60.40339232 65.34676939 60.359375 67.6796875 C59.76769531 67.84984375 59.17601563 68.02 58.56640625 68.1953125 C54.76114797 69.36234114 51.8611993 70.27344878 48.734375 72.8046875 C45.67970935 75.21626564 43.17985633 75.38004191 39.359375 75.6796875 C39.2975 76.2778125 39.235625 76.8759375 39.171875 77.4921875 C38.359375 79.6796875 38.359375 79.6796875 36.234375 81.4296875 C32.71281032 82.96080258 30.16322443 83.03854122 26.359375 82.6796875 C25.699375 82.0196875 25.039375 81.3596875 24.359375 80.6796875 C24.734375 78.0546875 24.734375 78.0546875 25.359375 75.6796875 C24.89789063 75.27878906 24.43640625 74.87789063 23.9609375 74.46484375 C22.55059931 73.23567548 21.14919277 71.99622789 19.75390625 70.75 C17.42378277 68.68111234 17.42378277 68.68111234 15.05859375 66.984375 C7.62452421 61.16852355 3.60830356 53.89301318 -0.82299805 45.66186523 C-6.50109811 35.35689912 -13.6891178 30.22832525 -23.953125 24.8046875 C-25.29213867 24.07765625 -25.29213867 24.07765625 -26.65820312 23.3359375 C-33.01919937 19.90894479 -37.5381288 18.53441898 -44.828125 18.6171875 C-45.57771484 18.62169922 -46.32730469 18.62621094 -47.09960938 18.63085938 C-48.94664883 18.64262396 -50.79364713 18.66055885 -52.640625 18.6796875 C-47.92089337 14.97299211 -42.69697319 12.14047364 -37.50512695 9.15454102 C-35.70984505 8.12105601 -33.91829297 7.08131492 -32.12695312 6.04101562 C-30.41862305 5.05584961 -30.41862305 5.05584961 -28.67578125 4.05078125 C-27.6381665 3.45193115 -26.60055176 2.85308105 -25.53149414 2.23608398 C-17.30102222 -2.19506698 -8.9551519 -3.24768384 0 0 Z " fill="#FDD413" transform="translate(67.640625,13.3203125)"/>
<path d="M0 0 C2.3173546 1.56682335 3.33651456 3.00923705 4.77563477 5.40039062 C5.2590332 6.19703125 5.74243164 6.99367188 6.24047852 7.81445312 C6.97717773 9.06355469 6.97717773 9.06355469 7.72875977 10.33789062 C8.23536133 11.170625 8.74196289 12.00335938 9.26391602 12.86132812 C12.97875977 19.04939669 12.97875977 19.04939669 12.97875977 21.33789062 C9.49504492 23.31949166 6.00784302 25.2947943 2.51733398 27.2644043 C1.33114428 27.93489455 0.14591026 28.60707854 -1.03833008 29.28100586 C-2.74363201 30.25106636 -4.45270876 31.21448145 -6.16186523 32.17773438 C-7.18828125 32.759021 -8.21469727 33.34030762 -9.2722168 33.93920898 C-11.58547545 35.11617691 -13.48842914 35.86894966 -16.02124023 36.33789062 C-17.73244789 33.45545639 -19.41075895 30.55515197 -21.08374023 27.65039062 C-21.56907227 26.83376953 -22.0544043 26.01714844 -22.55444336 25.17578125 C-23.00883789 24.37978516 -23.46323242 23.58378906 -23.93139648 22.76367188 C-24.35557861 22.03575439 -24.77976074 21.30783691 -25.21679688 20.55786133 C-26.23383901 17.75119544 -25.90741702 16.15608712 -25.02124023 13.33789062 C-23.44702148 11.81835938 -23.44702148 11.81835938 -21.33374023 10.52539062 C-20.13104492 9.78869141 -20.13104492 9.78869141 -18.90405273 9.03710938 C-17.95272461 8.47636719 -17.00139648 7.915625 -16.02124023 7.33789062 C-14.83049068 6.59543511 -13.64042404 5.85188358 -12.45092773 5.10742188 C-11.20468385 4.34901528 -9.95728876 3.59249712 -8.70874023 2.83789062 C-7.81119019 2.27557739 -7.81119019 2.27557739 -6.89550781 1.7019043 C-2.56573863 -0.84047387 -2.56573863 -0.84047387 0 0 Z " fill="#335073" transform="translate(93.021240234375,35.662109375)"/>
<path d="M0 0 C14.47013958 7.53312194 23.44074633 16.37997311 29 32 C29 33.32 29 34.64 29 36 C25.30897778 34.61022737 21.9452522 32.9403208 18.515625 30.99609375 C17.49855469 30.42052734 16.48148438 29.84496094 15.43359375 29.25195312 C14.38300781 28.65318359 13.33242188 28.05441406 12.25 27.4375 C11.18394531 26.83486328 10.11789063 26.23222656 9.01953125 25.61132812 C1.13900267 21.13900267 1.13900267 21.13900267 0 20 C-0.08669432 18.5112814 -0.10703494 17.018555 -0.09765625 15.52734375 C-0.09443359 14.62822266 -0.09121094 13.72910156 -0.08789062 12.80273438 C-0.07951172 11.85720703 -0.07113281 10.91167969 -0.0625 9.9375 C-0.05798828 8.98810547 -0.05347656 8.03871094 -0.04882812 7.06054688 C-0.0370011 4.70696935 -0.02052025 2.35351523 0 0 Z " fill="#273C56" transform="translate(40,39)"/>
<path d="M0 0 C5.11471821 0.90745 6.96391695 2.95358013 10.20703125 6.88671875 C12.97755003 11.53885451 13.51407642 16.35485417 13.875 21.6875 C16.515 21.6875 19.155 21.6875 21.875 21.6875 C12.6092664 29.36482213 12.6092664 29.36482213 5.79296875 29.01953125 C2.44278301 28.4395602 1.11837824 27.23403747 -1.125 24.6875 C-5.6875505 18.16957071 -6.61547786 13.0089699 -5.71484375 5.15625 C-4.81878858 1.4058734 -3.73232609 0.82111174 0 0 Z " fill="#333A3E" transform="translate(68.125,87.3125)"/>
<path d="M0 0 C5.15583658 3.29973541 8.08441068 7.17257565 10 13 C10.4259649 15.61000312 10.67917407 18.16096801 10.82421875 20.80078125 C10.92571367 23.17653475 10.92571367 23.17653475 12 26 C8.93928495 27.8218542 6.64249465 28.9589897 3.0625 29.1875 C-2.23770015 27.13232035 -5.68622272 22.64489816 -8.18359375 17.6171875 C-9.12502183 14.5992123 -9.30062556 12.03360204 -9.3125 8.875 C-9.33763672 7.32425781 -9.33763672 7.32425781 -9.36328125 5.7421875 C-9 3 -9 3 -7.65625 1.1640625 C-4.97014051 -0.72381634 -3.19908934 -0.50181794 0 0 Z " fill="#343A3D" transform="translate(11,53)"/>
<path d="M0 0 C1.98 0.99 3.96 1.98 6 3 C6 9.27 6 15.54 6 22 C1.11695901 20.37231967 -2.31602803 18.82636691 -6.625 16.1875 C-7.73101562 15.52105469 -8.83703125 14.85460937 -9.9765625 14.16796875 C-13.00326238 11.9976607 -14.98831653 10.12546919 -17 7 C-17 5.68 -17 4.36 -17 3 C-11.61552949 -0.49262952 -6.23761285 -0.89359061 0 0 Z " fill="#263C56" transform="translate(30,34)"/>
<path d="M0 0 C2.19598602 1.52909222 2.89192033 2.75453871 3.80078125 5.25390625 C3.80078125 6.24390625 3.80078125 7.23390625 3.80078125 8.25390625 C4.41800393 9.77491927 5.09046346 11.27407752 5.80078125 12.75390625 C7.17481857 15.61648399 7.80078125 17.02951839 7.80078125 20.25390625 C2.19601302 18.67586471 -2.54972501 15.9897424 -7.57421875 13.12890625 C-8.40566406 12.66097656 -9.23710938 12.19304688 -10.09375 11.7109375 C-12.13156829 10.56320076 -14.16657444 9.41077343 -16.19921875 8.25390625 C-13.12323959 5.72585283 -10.07085994 3.39758403 -6.63671875 1.37890625 C-5.89292969 0.92773438 -5.14914063 0.4765625 -4.3828125 0.01171875 C-2.19921875 -0.74609375 -2.19921875 -0.74609375 0 0 Z " fill="#597087" transform="translate(93.19921875,35.74609375)"/>
<path d="M0 0 C2.75 0.4375 2.75 0.4375 5.5 3.3125 C7.98278628 6.76081428 8.89952002 8.30527795 8.9375 12.4375 C8.95167969 13.13875 8.96585938 13.84 8.98046875 14.5625 C8.75 16.4375 8.75 16.4375 6.75 18.4375 C3.50017644 18.26645665 2.0135035 17.65708625 -0.5 15.5625 C-3.11377881 12.38862573 -3.38794923 9.78791327 -3.375 5.8125 C-3.37757813 5.01585937 -3.38015625 4.21921875 -3.3828125 3.3984375 C-3.19096239 0.56582711 -2.78479507 0.54148793 0 0 Z " fill="#C3C4C4" transform="translate(9.25,57.5625)"/>
<path d="M0 0 C4.32031241 0.16616586 6.36323258 0.34690521 9.4375 3.5 C11.33151945 7.74260356 11.78990858 11.40750825 11 16 C10.34 16.66 9.68 17.32 9 18 C6.625 17.9375 6.625 17.9375 4 17 C0.46124068 13.26464294 -0.94301808 10.62398459 -1.125 5.4375 C-1 2 -1 2 0 0 Z " fill="#C3C4C4" transform="translate(67,93)"/>
<path d="M0 0 C0.33 1.32 0.66 2.64 1 4 C-5.78879863 8.38398908 -12.23402476 12.49479876 -19.9765625 15.015625 C-22.4639472 16.22570404 -23.36502795 17.81406476 -25 20 C-28.1875 20.25 -28.1875 20.25 -31 20 C-30.703125 18.12109375 -30.703125 18.12109375 -30 16 C-25.37412355 13.24226596 -20.62187912 11.50247071 -15.5625 9.6875 C-9.45103348 7.40816517 -4.836243 4.33637292 0 0 Z " fill="#424135" transform="translate(126,86)"/>
<path d="M0 0 C1.79244141 0.01740234 1.79244141 0.01740234 3.62109375 0.03515625 C5.41740234 0.04869141 5.41740234 0.04869141 7.25 0.0625 C8.17683594 0.07410156 9.10367188 0.08570312 10.05859375 0.09765625 C9.32421875 3.87890625 9.32421875 3.87890625 6.93359375 5.84765625 C3.41202907 7.37877133 0.86244318 7.45650997 -2.94140625 7.09765625 C-3.60140625 6.43765625 -4.26140625 5.77765625 -4.94140625 5.09765625 C-4.35074211 1.19927294 -4.1044613 0.1362703 0 0 Z " fill="#FBF6EC" transform="translate(96.94140625,88.90234375)"/>
<path d="M0 0 C0.9075 0.0825 1.815 0.165 2.75 0.25 C-4.0213239 7.67661331 -11.48336928 11.92558267 -21.25 14.25 C-20.610625 13.651875 -19.97125 13.05375 -19.3125 12.4375 C-17.04689611 10.34189663 -17.04689611 10.34189663 -16.25 7.25 C-14.32421875 6.44140625 -14.32421875 6.44140625 -11.9375 5.8125 C-8.77359571 4.87430756 -7.44346314 4.44346314 -5.0625 2.0625 C-3.25 0.25 -3.25 0.25 0 0 Z " fill="#424239" transform="translate(123.25,81.75)"/>
<path d="M0 0 C1.875 0.25 1.875 0.25 4 1 C5.87380446 3.49840595 6.05001932 4.63319166 5.625 7.75 C5.41875 8.4925 5.2125 9.235 5 10 C2.54765115 9.01906046 1.2190732 8.31296172 -0.3125 6.125 C-1.1132654 3.64990694 -0.86325845 2.41712366 0 0 Z " fill="#697C86" transform="translate(9,62)"/>
<path d="M0 0 C2.4375 0.375 2.4375 0.375 5 1 C6.35439668 3.70879335 6.06501451 6.00933268 6 9 C4.68 9 3.36 9 2 9 C0.14223235 5.86501708 -0.20140476 3.62528568 0 0 Z " fill="#687B85" transform="translate(69,97)"/>
<path d="M0 0 C-1.20381448 2.49361571 -2.45428722 4.68143083 -4 7 C-7.125 7.1875 -7.125 7.1875 -10 7 C-9.8125 5.1875 -9.8125 5.1875 -9 3 C-5.65188866 0.46629412 -4.29875783 0 0 0 Z " fill="#373B39" transform="translate(105,99)"/>
<path d="M0 0 C0.99 0 1.98 0 3 0 C3 2.31 3 4.62 3 7 C2.01 7 1.02 7 0 7 C-1.87494564 8.08026513 -1.87494564 8.08026513 -3.6875 9.5 C-4.31011719 9.9640625 -4.93273437 10.428125 -5.57421875 10.90625 C-6.04472656 11.2671875 -6.51523438 11.628125 -7 12 C-7 9 -7 9 -4.625 6.5625 C-3.75875 5.716875 -2.8925 4.87125 -2 4 C-0.70480005 1.83379456 -0.70480005 1.83379456 0 0 Z " fill="#BE7E09" transform="translate(125,81)"/>
<path d="M0 0 C0.99 0.33 1.98 0.66 3 1 C-5.92250923 9.08118081 -5.92250923 9.08118081 -10 11 C-10.66 10.67 -11.32 10.34 -12 10 C-8.30166776 6.07752641 -4.57577783 2.8810453 0 0 Z " fill="#D08E04" transform="translate(123,91)"/>
<path d="M0 0 C0.99 0 1.98 0 3 0 C4.00508801 1.78881736 5.00392736 3.58114696 6 5.375 C6.8353125 6.87160156 6.8353125 6.87160156 7.6875 8.3984375 C9 11 9 11 9 13 C9.66 13.33 10.32 13.66 11 14 C9.68 14 8.36 14 7 14 C5.078125 11.4453125 5.078125 11.4453125 3.25 8.125 C2.63640625 7.03445312 2.0228125 5.94390625 1.390625 4.8203125 C0 2 0 2 0 0 Z " fill="#F2CB16" transform="translate(68,59)"/>
<path d="M0 0 C0.33 0.66 0.66 1.32 1 2 C1.66 2 2.32 2 3 2 C3 4.31 3 6.62 3 9 C0.69 9.33 -1.62 9.66 -4 10 C-2.68 6.7 -1.36 3.4 0 0 Z " fill="#FBF5E7" transform="translate(125,72)"/>
<path d="M0 0 C2.97 0 5.94 0 9 0 C5.80009492 2.74277578 2.99500618 4.6302836 -1 6 C-0.67 4.02 -0.34 2.04 0 0 Z " fill="#23292F" transform="translate(81,109)"/>
<path d="M0 0 C0.99 0.33 1.98 0.66 3 1 C1.25 3.0625 1.25 3.0625 -1 5 C-3.25 4.75 -3.25 4.75 -5 4 C-2.6875 1.9375 -2.6875 1.9375 0 0 Z " fill="#C48406" transform="translate(123,91)"/>
<path d="M0 0 C3 3.75 3 3.75 3 6 C3.66 6.33 4.32 6.66 5 7 C3.68 7 2.36 7 1 7 C-0.0625 4.625 -0.0625 4.625 -1 2 C-0.67 1.34 -0.34 0.68 0 0 Z " fill="#E7C31B" transform="translate(74,66)"/>
</svg>
