<?xml version="1.0" encoding="UTF-8"?>
<svg version="1.1" xmlns="http://www.w3.org/2000/svg" width="128" height="128">
<path d="M0 0 C1.20557053 -0.0033284 2.41114105 -0.0066568 3.65324402 -0.01008606 C6.19566468 -0.01513256 8.73809192 -0.01749509 11.28051758 -0.01733398 C15.14480644 -0.01951816 19.00880851 -0.03769225 22.87304688 -0.05664062 C25.35286362 -0.05957558 27.8326817 -0.06155969 30.3125 -0.0625 C31.45556107 -0.06968552 32.59862213 -0.07687103 33.77632141 -0.08427429 C47.21720889 -0.04649241 59.52636321 2.00649985 69.7578125 11.3671875 C77.26300948 19.82659046 79.87916458 28.80195576 79.75 39.93359375 C79.36962709 43.05189838 79.15106693 44.30346762 76.98046875 46.48046875 C72.85564803 49.13213921 70.65684352 49.27876654 65.73046875 49.23046875 C64.54195313 49.22144531 63.3534375 49.21242187 62.12890625 49.203125 C61.21367188 49.19152344 60.2984375 49.17992187 59.35546875 49.16796875 C59.61763184 49.72145996 59.87979492 50.27495117 60.14990234 50.84521484 C61.35485041 53.40592933 62.54266784 55.9742582 63.73046875 58.54296875 C64.14296875 59.41308594 64.55546875 60.28320312 64.98046875 61.1796875 C70.00004852 72.10941763 73.20398866 86.01295824 69.515625 97.8671875 C67.03110107 102.39286914 64.50006802 103.74412464 59.59417725 105.52630997 C56.00587946 106.55478813 52.57493259 106.58644231 48.86328125 106.55615234 C47.65185455 106.56403778 47.65185455 106.56403778 46.41595459 106.57208252 C43.77059054 106.58518772 41.12583794 106.5765784 38.48046875 106.56640625 C36.62776576 106.56842971 34.77506356 106.57134342 32.92236328 106.57510376 C29.04907612 106.57951427 25.17599723 106.57313716 21.30273438 106.55908203 C16.35323505 106.54199094 11.40422387 106.55183896 6.45474243 106.56979942 C2.63188032 106.58067171 -1.19086723 106.57717514 -5.01373291 106.56941605 C-6.83807433 106.56742356 -8.66242635 106.56983967 -10.48675537 106.57685471 C-13.04222932 106.58452616 -15.59692718 106.5727861 -18.15234375 106.55615234 C-19.26854095 106.56526138 -19.26854095 106.56526138 -20.4072876 106.57455444 C-26.24398669 106.5046399 -31.81666454 105.40080517 -36.51953125 101.6875 C-41.52608005 94.09075754 -40.38059628 84.73092176 -39.23828125 76.09765625 C-37.23657725 66.64223866 -32.71762748 57.87530035 -28.64453125 49.16796875 C-29.52496094 49.20277344 -30.40539062 49.23757812 -31.3125 49.2734375 C-32.47394531 49.30050781 -33.63539062 49.32757813 -34.83203125 49.35546875 C-36.55486328 49.40767578 -36.55486328 49.40767578 -38.3125 49.4609375 C-41.97742359 49.1386992 -43.7411784 48.38029268 -46.64453125 46.16796875 C-50.07526633 41.02186614 -49.23976837 35.16374261 -48.64453125 29.16796875 C-45.92495026 18.88455312 -40.56286453 11.40261837 -31.58203125 5.79296875 C-21.3799521 0.1148885 -11.41834897 0.01105755 0 0 Z " fill="#FDE85D" transform="translate(48.64453125,10.83203125)"/>
<path d="M0 0 C7.7738157 -0.05098645 15.54758776 -0.08585332 23.3215332 -0.10986328 C25.96250012 -0.11987979 28.60345606 -0.13349682 31.24438477 -0.15087891 C35.05487793 -0.17531897 38.86522361 -0.18652697 42.67578125 -0.1953125 C44.4280175 -0.21079636 44.4280175 -0.21079636 46.21565247 -0.22659302 C59.73805102 -0.22841634 72.10338437 1.77676655 82.40234375 11.19921875 C89.90754073 19.65862171 92.52369583 28.63398701 92.39453125 39.765625 C92.01415834 42.88392963 91.79559818 44.13549887 89.625 46.3125 C85.50017928 48.96417046 83.30137477 49.11079779 78.375 49.0625 C77.18648438 49.05347656 75.99796875 49.04445312 74.7734375 49.03515625 C73.85820313 49.02355469 72.94296875 49.01195312 72 49 C72.26216309 49.55349121 72.52432617 50.10698242 72.79443359 50.67724609 C73.99938166 53.23796058 75.18719909 55.80628945 76.375 58.375 C76.7875 59.24511719 77.2 60.11523438 77.625 61.01171875 C82.64457977 71.94144888 85.84851991 85.84498949 82.16015625 97.69921875 C79.70361183 102.17393434 77.1873816 103.59961433 72.33227539 105.36421204 C68.24928995 106.47725084 64.23653734 106.36718055 60.03125 106.29296875 C59.11033569 106.28872391 58.18942139 106.28447906 57.24060059 106.28010559 C54.32675755 106.26344065 51.41363061 106.22581188 48.5 106.1875 C46.51303089 106.17243739 44.52605083 106.15875175 42.5390625 106.14648438 C37.69243643 106.11357716 32.84633922 106.06188031 28 106 C27.91314713 102.70849875 27.85966105 99.4172904 27.8125 96.125 C27.78736328 95.18785156 27.76222656 94.25070313 27.73632812 93.28515625 C27.72666016 92.38925781 27.71699219 91.49335937 27.70703125 90.5703125 C27.6913208 89.74289551 27.67561035 88.91547852 27.65942383 88.06298828 C27.77181396 87.38220215 27.8842041 86.70141602 28 86 C29.485 85.01 29.485 85.01 31 84 C31.5 81 31.5 81 31 78 C29.515 77.01 29.515 77.01 28 76 C28 74.68 28 73.36 28 72 C29.485 71.01 29.485 71.01 31 70 C31.5 67 31.5 67 31 64 C30.01 63.34 29.02 62.68 28 62 C27.8125 59.375 27.8125 59.375 28 57 C29.485 56.505 29.485 56.505 31 56 C31.2502157 53.08365871 31.2502157 53.08365871 31 50 C30.01 49.34 29.02 48.68 28 48 C27.63923645 45.97518921 27.63923645 45.97518921 27.65942383 43.45849609 C27.65965042 42.51767181 27.65987701 41.57684753 27.66011047 40.60751343 C27.67559433 39.58976837 27.69107819 38.57202332 27.70703125 37.5234375 C27.71127609 36.48305328 27.71552094 35.44266907 27.71989441 34.37075806 C27.73672518 31.03857853 27.77438578 27.70699759 27.8125 24.375 C27.82754113 22.11980038 27.84123053 19.86459131 27.85351562 17.609375 C27.88409484 12.07249895 27.94280915 6.53692169 28 1 C18.76 1 9.52 1 0 1 C0 0.67 0 0.34 0 0 Z " fill="#F8D42A" transform="translate(36,11)"/>
<path d="M0 0 C7.7738157 -0.05098645 15.54758776 -0.08585332 23.3215332 -0.10986328 C25.96250012 -0.11987979 28.60345606 -0.13349682 31.24438477 -0.15087891 C35.05487793 -0.17531897 38.86522361 -0.18652697 42.67578125 -0.1953125 C44.4280175 -0.21079636 44.4280175 -0.21079636 46.21565247 -0.22659302 C59.73805102 -0.22841634 72.10338437 1.77676655 82.40234375 11.19921875 C88.90718484 18.5310812 92.30961397 26.5904597 92.125 36.375 C92.10695313 37.62023438 92.08890625 38.86546875 92.0703125 40.1484375 C92.04710937 41.08945312 92.02390625 42.03046875 92 43 C91.67 42.01 91.34 41.02 91 40 C78.13 40 65.26 40 52 40 C51.34 36.37 50.68 32.74 50 29 C47.56085508 26.56085508 46.78553569 26.71337477 43.4296875 26.5859375 C42.62257324 26.55032715 41.81545898 26.5147168 40.98388672 26.47802734 C39.9579541 26.44402832 38.93202148 26.4100293 37.875 26.375 C34.61625 26.25125 31.3575 26.1275 28 26 C28 17.75 28 9.5 28 1 C18.76 1 9.52 1 0 1 C0 0.67 0 0.34 0 0 Z " fill="#FD9901" transform="translate(36,11)"/>
<path d="M0 0 C0.79056793 0.0028299 1.58113586 0.00565979 2.3956604 0.00857544 C4.90195334 0.01970295 7.40787895 0.04479324 9.9140625 0.0703125 C11.62108856 0.08035192 13.32812027 0.08947609 15.03515625 0.09765625 C19.20337778 0.11791 23.37081262 0.15707168 27.5390625 0.1953125 C27.5390625 8.4453125 27.5390625 16.6953125 27.5390625 25.1953125 C18.2265625 25.5078125 18.2265625 25.5078125 15.3034668 25.58325195 C14.53945557 25.61636475 13.77544434 25.64947754 12.98828125 25.68359375 C12.20799561 25.70977783 11.42770996 25.73596191 10.6237793 25.76293945 C8.09760497 26.0879967 8.09760497 26.0879967 5.5390625 29.1953125 C5.2090625 32.1653125 4.8790625 35.1353125 4.5390625 38.1953125 C-8.9909375 38.1953125 -22.5209375 38.1953125 -36.4609375 38.1953125 C-36.4609375 26.73351477 -34.50607262 18.35233184 -26.484375 9.9453125 C-18.57275166 3.10282745 -10.43800155 -0.1424305 0 0 Z " fill="#FAD429" transform="translate(36.4609375,11.8046875)"/>
<path d="M0 0 C12.87 0 25.74 0 39 0 C38 6 38 6 35.81030273 7.84570312 C30.71167769 9.93989991 25.50329954 9.51197754 20.0625 9.5 C18.89525391 9.52835938 17.72800781 9.55671875 16.52539062 9.5859375 C6.95813984 9.6077432 6.95813984 9.6077432 3.24609375 6.71875 C1 4 1 4 0 0 Z " fill="#5A5756" transform="translate(88,51)"/>
<path d="M0 0 C12.87 0 25.74 0 39 0 C36.6 6 36.6 6 34 8 C28.86122142 9.65091014 23.40034887 9.22471712 18.0625 9.25 C16.43538086 9.2809375 16.43538086 9.2809375 14.77539062 9.3125 C13.72673828 9.31765625 12.67808594 9.3228125 11.59765625 9.328125 C10.64383057 9.3374707 9.69000488 9.34681641 8.70727539 9.35644531 C5.36982449 8.91702983 3.58493387 8.16651856 1 6 C0.67 4.02 0.34 2.04 0 0 Z " fill="#B0ADAE" transform="translate(1,51)"/>
<path d="M0 0 C4.55555556 0.55555556 4.55555556 0.55555556 6 2 C6.1875 4.9375 6.1875 4.9375 6 8 C5.34 8.66 4.68 9.32 4 10 C0.70285207 9.67028521 -0.6226839 9.3773161 -3 7 C-2.67028521 3.70285207 -2.3773161 2.3773161 0 0 Z " fill="#AFAA9C" transform="translate(62,87)"/>
<path d="M0 0 C4.55555556 0.55555556 4.55555556 0.55555556 6 2 C6.04080783 3.99958364 6.04254356 6.00045254 6 8 C3.75 9.1875 3.75 9.1875 1 10 C-1.3125 8.625 -1.3125 8.625 -3 7 C-2.25 2.25 -2.25 2.25 0 0 Z " fill="#AEABA7" transform="translate(62,59)"/>
<path d="M0 0 C4.55555556 0.55555556 4.55555556 0.55555556 6 2 C6.125 5 6.125 5 6 8 C5 9 5 9 2.0625 9.1875 C-1 9 -1 9 -3 7 C-2.67028521 3.70285207 -2.3773161 2.3773161 0 0 Z " fill="#ADAAA3" transform="translate(62,73)"/>
<path d="M0 0 C3.125 0.375 3.125 0.375 6 1 C6.625 3.875 6.625 3.875 7 7 C5 9 5 9 2.5 9.25 C0 9 0 9 -2 7 C-2.25 4.5 -2.25 4.5 -2 2 C-1.34 1.34 -0.68 0.68 0 0 Z " fill="#B3B0AD" transform="translate(47,59)"/>
<path d="M0 0 C1 1 1 1 1.1875 3.4375 C1 6 1 6 -1 8 C-3.5 8.25 -3.5 8.25 -6 8 C-6.66 7.34 -7.32 6.68 -8 6 C-7.75 2.9375 -7.75 2.9375 -7 0 C-4.31633121 -1.3418344 -2.84719317 -0.73004953 0 0 Z " fill="#5E5B56" transform="translate(82,60)"/>
<path d="M0 0 C1.9375 0.75 1.9375 0.75 3.9375 2.75 C3.38194444 7.30555556 3.38194444 7.30555556 1.9375 8.75 C-0.5 8.9375 -0.5 8.9375 -3.0625 8.75 C-5.0625 6.75 -5.0625 6.75 -5.375 4.25 C-5.271875 3.425 -5.16875 2.6 -5.0625 1.75 C-2.0625 -0.25 -2.0625 -0.25 0 0 Z " fill="#B2B0AE" transform="translate(50.0625,73.25)"/>
<path d="M0 0 C2.625 0.375 2.625 0.375 5 1 C5.625 3.875 5.625 3.875 6 7 C4 9 4 9 1.5 9.25 C-1 9 -1 9 -3 7 C-2.67028521 3.70285207 -2.3773161 2.3773161 0 0 Z " fill="#5C5A56" transform="translate(77,87)"/>
<path d="M0 0 C2 0.6875 2 0.6875 4 2.6875 C3.44444444 7.24305556 3.44444444 7.24305556 2 8.6875 C-0.4375 8.875 -0.4375 8.875 -3 8.6875 C-3.66 8.0275 -4.32 7.3675 -5 6.6875 C-4.75 3.625 -4.75 3.625 -4 0.6875 C-2 -0.3125 -2 -0.3125 0 0 Z " fill="#B1AFAF" transform="translate(50,87.3125)"/>
<path d="M0 0 C2.625 0.375 2.625 0.375 5 1 C5.625 3.875 5.625 3.875 6 7 C4 9 4 9 1.5 9.25 C-1 9 -1 9 -3 7 C-2.67028521 3.70285207 -2.3773161 2.3773161 0 0 Z " fill="#5C5A56" transform="translate(77,73)"/>
<path d="M0 0 C1.98 0.99 1.98 0.99 4 2 C4 3.98 4 5.96 4 8 C2.68 8.33 1.36 8.66 0 9 C0 6.03 0 3.06 0 0 Z " fill="#5D5B56" transform="translate(64,59)"/>
<path d="M0 0 C1.32 0.33 2.64 0.66 4 1 C4 2.98 4 4.96 4 7 C2.68 7.33 1.36 7.66 0 8 C0 5.36 0 2.72 0 0 Z " fill="#595857" transform="translate(64,88)"/>
<path d="M0 0 C1.32 0.33 2.64 0.66 4 1 C4 2.98 4 4.96 4 7 C2.68 7.33 1.36 7.66 0 8 C0 5.36 0 2.72 0 0 Z " fill="#5A5857" transform="translate(64,74)"/>
<path d="M0 0 C0.66 0.33 1.32 0.66 2 1 C-1.96 4.96 -5.92 8.92 -10 13 C-10 8.41771462 -7.08388033 6.1816619 -4 3 C-1.625 1.0625 -1.625 1.0625 0 0 Z " fill="#FBC71E" transform="translate(16,17)"/>
</svg>
