<?xml version="1.0" encoding="UTF-8"?>
<svg version="1.1" xmlns="http://www.w3.org/2000/svg" width="128" height="128">
<path d="M0 0 C4.23928557 1.61562852 7.81711106 3.71978547 11.54296875 6.28125 C12.15263992 6.69540161 12.7623111 7.10955322 13.39045715 7.53625488 C14.67191671 8.40814555 15.95181497 9.2823349 17.23022461 10.15869141 C19.18826524 11.50052441 21.1512913 12.83479365 23.11523438 14.16796875 C24.36227775 15.01779119 25.60903273 15.86803701 26.85546875 16.71875 C27.44192673 17.11775513 28.0283847 17.51676025 28.63261414 17.92785645 C34.80092768 22.16389625 34.80092768 22.16389625 35.625 25.625 C35.74875 26.40875 35.8725 27.1925 36 28 C37.2375 27.938125 38.475 27.87625 39.75 27.8125 C42.78211302 27.79637174 43.82248296 27.89348977 46.5 29.5 C46.995 29.995 47.49 30.49 48 31 C48.53109375 30.38640625 49.0621875 29.7728125 49.609375 29.140625 C54.6341616 24.64130628 62.70079266 22.86642707 69.375 22.5 C72.97712987 22.9968455 75.04482238 24.00467497 78.05859375 25.9765625 C81.7500322 27.92255219 85.91102314 28.37472386 90 29 C89.814375 28.154375 89.62875 27.30875 89.4375 26.4375 C90.09416187 22.42456638 90.66478489 22.04314157 93.75 19.625 C95.48234262 18.3914853 97.23401013 17.18484143 99 16 C99.93972656 15.35933594 100.87945312 14.71867187 101.84765625 14.05859375 C104.88308838 12.01497607 107.94080651 10.00783295 111 8 C112.13385734 7.23983741 113.26665928 6.47809841 114.3984375 5.71484375 C116.02652344 4.61849609 116.02652344 4.61849609 117.6875 3.5 C119.17830078 2.49453125 119.17830078 2.49453125 120.69921875 1.46875 C123 0 123 0 124 0 C124.0926259 8.81421584 124.16372688 17.6282645 124.20724869 26.4428606 C124.22813567 30.53573085 124.25647286 34.62826847 124.30175781 38.72094727 C124.34517706 42.66966209 124.36912874 46.61805672 124.37950897 50.56699181 C124.3869075 52.07454152 124.40135512 53.58207345 124.42292023 55.08948708 C124.45190406 57.19912386 124.4559584 59.30743291 124.45410156 61.41723633 C124.46298401 62.61858719 124.47186646 63.81993805 124.48101807 65.05769348 C124 68 124 68 122.09881592 69.89970398 C119.74741652 71.1324159 118.55081322 71.24169371 115.9375 71 C112.10833333 70.60625 112.10833333 70.60625 110 72.5 C109.67 72.995 109.34 73.49 109 74 C109.33 74.495 109.66 74.99 110 75.5 C111.51865483 79.29663707 111.45499176 81.90507419 111 86 C108.8125 88.0625 108.8125 88.0625 106 89 C103.1875 88.6875 103.1875 88.6875 101 88 C100.566875 88.94875 100.13375 89.8975 99.6875 90.875 C98 94 98 94 95 96 C91.8125 95.625 91.8125 95.625 89 95 C88.896875 95.763125 88.79375 96.52625 88.6875 97.3125 C87.92391959 100.29740522 87.59461433 101.35674426 85 103 C81.3125 103.1875 81.3125 103.1875 78 103 C77.731875 103.94875 77.46375 104.8975 77.1875 105.875 C76 109 76 109 73 111 C68.40577752 110.74940605 65.41965498 110.14608258 62 107 C61.2265625 107.99 61.2265625 107.99 60.4375 109 C58 111 58 111 54.4375 111.4375 C51 111 51 111 49.125 109.6875 C48 108 48 108 47 105 C45.9275 105.103125 44.855 105.20625 43.75 105.3125 C40 105 40 105 37.5625 102.6875 C36 100 36 100 36 97 C34.906875 97.061875 33.81375 97.12375 32.6875 97.1875 C29 97 29 97 27.125 95.8125 C25.73770965 93.5774211 25.35012787 91.59094622 25 89 C23.906875 89.061875 22.81375 89.12375 21.6875 89.1875 C18 89 18 89 16.0625 88 C14.34905374 84.77468939 14.46559763 81.52157457 15 78 C16.5 75 16.5 75 18 73 C16.02 71.68 14.04 70.36 12 69 C12 69.66 12 70.32 12 71 C10.4375 71.75 10.4375 71.75 8 72 C5.13451752 70.73618458 2.22863155 69.22863155 0 67 C-0.09417773 64.91380978 -0.11742878 62.82439523 -0.11352539 60.73608398 C-0.11367142 60.08244873 -0.11381744 59.42881348 -0.1139679 58.75537109 C-0.11326883 56.58557872 -0.10547678 54.41587121 -0.09765625 52.24609375 C-0.09579205 50.74536689 -0.09436816 49.24463943 -0.09336853 47.74391174 C-0.08954352 43.78681774 -0.0797134 39.82976022 -0.06866455 35.87268066 C-0.05845006 31.83765151 -0.05387083 27.80261647 -0.04882812 23.76757812 C-0.03809111 15.84503531 -0.0210149 7.92252219 0 0 Z " fill="#EFD1C0" transform="translate(2,12)"/>
<path d="M0 0 C0.0926259 8.81421584 0.16372688 17.6282645 0.20724869 26.4428606 C0.22813567 30.53573085 0.25647286 34.62826847 0.30175781 38.72094727 C0.34517706 42.66966209 0.36912874 46.61805672 0.37950897 50.56699181 C0.3869075 52.07454152 0.40135512 53.58207345 0.42292023 55.08948708 C0.45190406 57.19912386 0.4559584 59.30743291 0.45410156 61.41723633 C0.46298401 62.61858719 0.47186646 63.81993805 0.48101807 65.05769348 C0 68 0 68 -1.90338135 69.90190125 C-4.25581787 71.13398396 -5.39375826 71.21746737 -8 70.9375 C-10.07464536 70.79029794 -10.07464536 70.79029794 -12 71 C-14.22977996 72.97901574 -14.22977996 72.97901574 -16 75 C-19.07758002 74.62412149 -21.11728217 73.42575467 -23.58984375 71.62109375 C-24.62818359 70.86844238 -24.62818359 70.86844238 -25.6875 70.10058594 C-26.43 69.55176758 -27.1725 69.00294922 -27.9375 68.4375 C-28.71222656 67.87192383 -29.48695312 67.30634766 -30.28515625 66.72363281 C-37.68979231 61.29062802 -44.99113752 55.71979288 -52.26928711 50.11889648 C-53.11885986 49.46606689 -53.96843262 48.8132373 -54.84375 48.140625 C-55.59849609 47.55829102 -56.35324219 46.97595703 -57.13085938 46.37597656 C-58.95413222 44.95205795 -58.95413222 44.95205795 -61 44 C-61.0825 45.2375 -61.165 46.475 -61.25 47.75 C-61.62861676 50.56471667 -61.98319851 51.97269758 -63.5 54.4375 C-67.10356234 56.68972646 -70.78263685 57.04277245 -75 57 C-76.88496929 55.11503071 -76.13254044 52.40919253 -76.13671875 49.90429688 C-76.13285156 49.09025391 -76.12898438 48.27621094 -76.125 47.4375 C-76.12886719 46.65052734 -76.13273437 45.86355469 -76.13671875 45.05273438 C-76.11481261 31.76666318 -76.11481261 31.76666318 -73.82421875 28.13671875 C-67.34906134 24.10187763 -58.54660288 21.95908926 -51 23 C-49.28975436 23.95013647 -47.5785614 24.90538442 -45.94140625 25.9765625 C-42.2499678 27.92255219 -38.08897686 28.37472386 -34 29 C-34.185625 28.154375 -34.37125 27.30875 -34.5625 26.4375 C-33.90583813 22.42456638 -33.33521511 22.04314157 -30.25 19.625 C-28.51765738 18.3914853 -26.76598987 17.18484143 -25 16 C-24.06027344 15.35933594 -23.12054688 14.71867187 -22.15234375 14.05859375 C-19.11691162 12.01497607 -16.05919349 10.00783295 -13 8 C-11.86614266 7.23983741 -10.73334072 6.47809841 -9.6015625 5.71484375 C-7.97347656 4.61849609 -7.97347656 4.61849609 -6.3125 3.5 C-4.82169922 2.49453125 -4.82169922 2.49453125 -3.30078125 1.46875 C-1 0 -1 0 0 0 Z " fill="#C78E70" transform="translate(126,12)"/>
<path d="M0 0 C4.23928557 1.61562852 7.81711106 3.71978547 11.54296875 6.28125 C12.15263992 6.69540161 12.7623111 7.10955322 13.39045715 7.53625488 C14.67191671 8.40814555 15.95181497 9.2823349 17.23022461 10.15869141 C19.18826524 11.50052441 21.1512913 12.83479365 23.11523438 14.16796875 C24.36227775 15.01779119 25.60903273 15.86803701 26.85546875 16.71875 C27.44192673 17.11775513 28.0283847 17.51676025 28.63261414 17.92785645 C34.84241736 22.19238896 34.84241736 22.19238896 35.5 25.5625 C34.98367096 29.11226213 34.37086539 30.17847543 32.34765625 33 C28.74003048 38.25342486 25.83665969 43.77011041 22.9375 49.4375 C22.43412109 50.41009766 21.93074219 51.38269531 21.41210938 52.38476562 C20.91388672 53.34962891 20.41566406 54.31449219 19.90234375 55.30859375 C19.41491699 56.25202637 18.92749023 57.19545898 18.42529297 58.16748047 C17.46950059 60.06695 16.54677185 61.9833947 15.65673828 63.91455078 C15.02421143 65.27362549 15.02421143 65.27362549 14.37890625 66.66015625 C14.01482666 67.47234619 13.65074707 68.28453613 13.27563477 69.12133789 C12 71 12 71 9.96923828 71.81762695 C6.32860714 72.1547893 3.98813186 69.91691478 1 68 C0 67 0 67 -0.12025452 64.33616638 C-0.11803391 63.14813919 -0.11581329 61.960112 -0.11352539 60.73608398 C-0.11367142 60.08244873 -0.11381744 59.42881348 -0.1139679 58.75537109 C-0.11326883 56.58557872 -0.10547678 54.41587121 -0.09765625 52.24609375 C-0.09579205 50.74536689 -0.09436816 49.24463943 -0.09336853 47.74391174 C-0.08954352 43.78681774 -0.0797134 39.82976022 -0.06866455 35.87268066 C-0.05845006 31.83765151 -0.05387083 27.80261647 -0.04882812 23.76757812 C-0.03809111 15.84503531 -0.0210149 7.92252219 0 0 Z " fill="#235583" transform="translate(2,12)"/>
<path d="M0 0 C0.0926259 8.81421584 0.16372688 17.6282645 0.20724869 26.4428606 C0.22813567 30.53573085 0.25647286 34.62826847 0.30175781 38.72094727 C0.34517706 42.66966209 0.36912874 46.61805672 0.37950897 50.56699181 C0.3869075 52.07454152 0.40135512 53.58207345 0.42292023 55.08948708 C0.45190406 57.19912386 0.4559584 59.30743291 0.45410156 61.41723633 C0.46298401 62.61858719 0.47186646 63.81993805 0.48101807 65.05769348 C0 68 0 68 -1.79400635 69.89970398 C-4.90394041 71.45086351 -7.58122922 71.19723678 -11 71 C-11.42667969 70.1234375 -11.85335937 69.246875 -12.29296875 68.34375 C-17.19020263 58.38050449 -22.41224579 48.6172671 -27.78198242 38.90039062 C-28.32830322 37.90458984 -28.87462402 36.90878906 -29.4375 35.8828125 C-29.93121094 34.98965332 -30.42492187 34.09649414 -30.93359375 33.17626953 C-32 31 -32 31 -32 29 C-32.66 29 -33.32 29 -34 29 C-34.5625 26.4375 -34.5625 26.4375 -34 23 C-31.34865552 20.19153881 -28.19683933 18.14482979 -25 16 C-24.06027344 15.35933594 -23.12054688 14.71867187 -22.15234375 14.05859375 C-19.11691162 12.01497607 -16.05919349 10.00783295 -13 8 C-11.86614266 7.23983741 -10.73334072 6.47809841 -9.6015625 5.71484375 C-8.51617187 4.98394531 -7.43078125 4.25304687 -6.3125 3.5 C-5.31863281 2.8296875 -4.32476562 2.159375 -3.30078125 1.46875 C-1 0 -1 0 0 0 Z " fill="#4E4843" transform="translate(126,12)"/>
<path d="M0 0 C0.99 0.78375 1.98 1.5675 3 2.375 C5.72526942 4.34694291 7.9634939 5.4190098 11.25 6.125 C15 7 15 7 17 8.375 C18 10 18 10 18 14 C18.66 14 19.32 14 20 14 C20.433125 13.071875 20.433125 13.071875 20.875 12.125 C22 10 22 10 24 8 C30.05240175 7.44978166 30.05240175 7.44978166 32.9375 9.125 C34.44484863 11.785027 34.19986253 14.00206205 34 17 C34.9075 16.9175 35.815 16.835 36.75 16.75 C40 17 40 17 42.4375 18.5625 C44 21 44 21 43.875 24.5625 C43 28 43 28 41 31 C41.94875 30.95875 42.8975 30.9175 43.875 30.875 C47 31 47 31 49 33 C49.65702411 38.69420896 48.50835576 41.53481994 45 46 C44 47 44 47 40.625 47.25 C37 47 37 47 35.125 45.6875 C34 44 34 44 33 41 C31.39125 41.1546875 31.39125 41.1546875 29.75 41.3125 C26 41 26 41 23.5625 38.6875 C22 36 22 36 22 33 C20.906875 33.061875 19.81375 33.12375 18.6875 33.1875 C15 33 15 33 13.125 31.8125 C11.73770965 29.5774211 11.35012787 27.59094622 11 25 C9.906875 25.061875 8.81375 25.12375 7.6875 25.1875 C4 25 4 25 2.0625 24 C0.34905374 20.77468939 0.46559763 17.52157457 1 14 C2.5 11 2.5 11 4 9 C2.35 7.68 0.7 6.36 -1 5 C-0.67 3.35 -0.34 1.7 0 0 Z " fill="#B87F5A" transform="translate(16,76)"/>
<path d="M0 0 C11.17957759 1.05842155 21.5232189 9.64608884 28.484375 17.90234375 C29.83550893 19.59064138 31.16862583 21.29364548 32.4765625 23.015625 C35.76290955 27.41520293 35.76290955 27.41520293 40.44140625 29.921875 C41.48554687 29.99148437 41.48554687 29.99148437 42.55078125 30.0625 C43.78828125 30.145 45.02578125 30.2275 46.30078125 30.3125 C46.67088462 33.6434303 46.57539329 34.93981223 44.55078125 37.6875 C42.30078125 39.3125 42.30078125 39.3125 40.38452148 39.06274414 C38.17404932 38.26687057 36.6062097 37.31690558 34.7109375 35.93359375 C34.01871094 35.43182617 33.32648438 34.93005859 32.61328125 34.41308594 C31.87078125 33.86426758 31.12828125 33.31544922 30.36328125 32.75 C29.58855469 32.18442383 28.81382813 31.61884766 28.015625 31.03613281 C20.61098894 25.60312802 13.30964373 20.03229288 6.03149414 14.43139648 C5.18192139 13.77856689 4.33234863 13.1257373 3.45703125 12.453125 C2.70228516 11.87079102 1.94753906 11.28845703 1.16992188 10.68847656 C-0.65335097 9.26455795 -0.65335097 9.26455795 -2.69921875 8.3125 C-2.78171875 9.55 -2.86421875 10.7875 -2.94921875 12.0625 C-3.32783551 14.87721667 -3.68241726 16.28519758 -5.19921875 18.75 C-8.80278109 21.00222646 -12.4818556 21.35527245 -16.69921875 21.3125 C-17.69921875 20.3125 -17.69921875 20.3125 -17.76171875 17.75 C-17.74109375 16.945625 -17.72046875 16.14125 -17.69921875 15.3125 C-17.0959375 15.21195313 -16.49265625 15.11140625 -15.87109375 15.0078125 C-13.1824275 14.37467496 -11.09055203 13.71260705 -8.69921875 12.3125 C-7.17743157 9.78457254 -6.30971597 7.4079039 -5.453125 4.58984375 C-4.35714892 1.27920097 -3.48906505 0.40394386 0 0 Z " fill="#B87F5A" transform="translate(67.69921875,47.6875)"/>
<path d="M0 0 C0.09895097 3.93254008 0.1715042 7.86459746 0.21972656 11.7980957 C0.24971281 13.79339014 0.30053786 15.78833582 0.3515625 17.78320312 C0.36445312 19.03681641 0.37734375 20.29042969 0.390625 21.58203125 C0.41157227 22.73936768 0.43251953 23.8967041 0.45410156 25.08911133 C0 28 0 28 -1.79003906 29.8894043 C-4.90183692 31.45320992 -7.57442912 31.19762909 -11 31 C-12.34326531 28.42141033 -13.67474665 25.83782579 -15 23.25 C-15.3815625 22.52039063 -15.763125 21.79078125 -16.15625 21.0390625 C-16.5171875 20.33007812 -16.878125 19.62109375 -17.25 18.890625 C-17.58515625 18.24125977 -17.9203125 17.59189453 -18.265625 16.92285156 C-19 15 -19 15 -19 11 C-17.09375 9.47265625 -17.09375 9.47265625 -14.5 8.0625 C-13.59378906 7.55589844 -12.68757813 7.04929687 -11.75390625 6.52734375 C-10.84511719 6.02332031 -9.93632813 5.51929688 -9 5 C-7.47273193 4.05195515 -5.95111112 3.09470005 -4.4375 2.125 C-1.1163522 0 -1.1163522 0 0 0 Z " fill="#383D2E" transform="translate(126,52)"/>
<path d="M0 0 C4.35970831 1.34849837 8.31341438 3.04907846 12.375 5.125 C13.43460938 5.66382812 14.49421875 6.20265625 15.5859375 6.7578125 C16.38257812 7.16773437 17.17921875 7.57765625 18 8 C17.44615296 12.15689594 16.53323133 15.54675094 14.6875 19.3125 C14.27886719 20.17488281 13.87023438 21.03726563 13.44921875 21.92578125 C12 24 12 24 10.0625 24.91015625 C6.34528461 25.07208041 4.06702024 22.96752242 1 21 C0 20 0 20 -0.11352539 18.05053711 C-0.10567017 16.8015564 -0.10567017 16.8015564 -0.09765625 15.52734375 C-0.09443359 14.62822266 -0.09121094 13.72910156 -0.08789062 12.80273438 C-0.07951172 11.85720703 -0.07113281 10.91167969 -0.0625 9.9375 C-0.05798828 8.98810547 -0.05347656 8.03871094 -0.04882812 7.06054688 C-0.0370011 4.70696935 -0.02052025 2.35351523 0 0 Z " fill="#23476B" transform="translate(2,59)"/>
<path d="M0 0 C3.5625 0.375 3.5625 0.375 5.28515625 2.3984375 C5.91744141 3.37683594 5.91744141 3.37683594 6.5625 4.375 C5.10612329 6.33481557 3.64749848 8.29288547 2.1875 10.25 C1.775 10.80558594 1.3625 11.36117187 0.9375 11.93359375 C-0.7629573 14.2100124 -2.4254119 16.3629119 -4.4375 18.375 C-8.49011287 18.71990322 -9.98504176 18.67663882 -13.4375 16.375 C-12.87447042 12.43379291 -11.7583055 9.6241277 -9.4375 6.375 C-8.7775 6.375 -8.1175 6.375 -7.4375 6.375 C-7.14875 5.75625 -6.86 5.1375 -6.5625 4.5 C-4.72669956 1.03237695 -3.99177787 0.43546668 0 0 Z " fill="#C78F71" transform="translate(43.4375,83.625)"/>
<path d="M0 0 C3.62291724 0.95699701 5.03080446 1.95442971 7.3125 4.875 C6.3225 5.37 6.3225 5.37 5.3125 5.875 C5.065 6.57625 4.8175 7.2775 4.5625 8 C2.84653395 11.94672192 0.61380174 15.08879498 -2.6875 17.875 C-6.136456 18.55126588 -7.675319 18.52802 -10.625 16.625 C-11.6875 14.875 -11.6875 14.875 -11.44921875 13.09375 C-9.45303665 7.27922983 -6.13013918 1.4546093 0 0 Z " fill="#C88F71" transform="translate(52.6875,92.125)"/>
<path d="M0 0 C0.99 0.78375 1.98 1.5675 3 2.375 C5.73666782 4.36075287 7.93973531 5.39431694 11.25 6.0625 C15 7 15 7 17 9.125 C17.33 9.74375 17.66 10.3625 18 11 C14.54774878 17.50616576 14.54774878 17.50616576 10.9921875 18.640625 C8.875 18.75 8.875 18.75 5 18 C2.875 15.75 2.875 15.75 2 13 C2.8125 10.6875 2.8125 10.6875 4 9 C2.35 7.68 0.7 6.36 -1 5 C-0.67 3.35 -0.34 1.7 0 0 Z " fill="#C88F70" transform="translate(16,76)"/>
<path d="M0 0 C3.46683583 0.46512052 5.4596912 1.9265426 8.1171875 4.125 C8.88933594 4.74890625 9.66148438 5.3728125 10.45703125 6.015625 C12.06434666 7.33471422 13.66854083 8.65761622 15.26953125 9.984375 C20.92801715 14.59482578 20.92801715 14.59482578 28 16 C27.67 16.99 27.34 17.98 27 19 C23.61008096 19.86836726 21.72516526 20.35011663 18.51464844 18.80004883 C17.7209082 18.19185303 16.92716797 17.58365723 16.109375 16.95703125 C14.79839844 15.96413086 14.79839844 15.96413086 13.4609375 14.95117188 C12.56632812 14.24541016 11.67171875 13.53964844 10.75 12.8125 C9.83992188 12.12607422 8.92984375 11.43964844 7.9921875 10.73242188 C0.69441264 5.11833246 0.69441264 5.11833246 -1 1 C-0.67 0.67 -0.34 0.34 0 0 Z " fill="#D9B399" transform="translate(84,81)"/>
<path d="M0 0 C5.44921094 2.84306658 9.9127292 6.28268537 14.5703125 10.29296875 C17.13023866 12.09150208 18.92314111 12.63318586 22 13 C20.875 14.5625 20.875 14.5625 19 16 C13.79480459 15.74967943 11.17908803 13.93295679 7.3125 10.5625 C4.58223281 8.20986313 2.00054166 6.00036111 -1 4 C-0.67 2.68 -0.34 1.36 0 0 Z " fill="#DAB49A" transform="translate(78,92)"/>
<path d="M0 0 C3.90829085 0.5647301 5.89920223 2.42131971 8.75 5.0625 C9.54921875 5.79597656 10.3484375 6.52945312 11.171875 7.28515625 C11.77515625 7.85105469 12.3784375 8.41695312 13 9 C12.67 10.32 12.34 11.64 12 13 C7.70524077 12.49517742 5.66268171 11.23082796 2.625 8.1875 C1.91601562 7.50042969 1.20703125 6.81335938 0.4765625 6.10546875 C-1 4 -1 4 -0.7265625 1.73828125 C-0.48679688 1.16464844 -0.24703125 0.59101563 0 0 Z " fill="#1687D3" transform="translate(34,13)"/>
<path d="M0 0 C0.55171875 0.25652344 1.1034375 0.51304688 1.671875 0.77734375 C0.82385796 5.83197164 -2.44327152 8.66946097 -6.328125 11.77734375 C-9.265625 12.71484375 -9.265625 12.71484375 -11.328125 12.77734375 C-11.658125 11.45734375 -11.988125 10.13734375 -12.328125 8.77734375 C-10.75934826 7.24149935 -9.17256346 5.72403044 -7.578125 4.21484375 C-6.69640625 3.36792969 -5.8146875 2.52101563 -4.90625 1.6484375 C-2.328125 -0.22265625 -2.328125 -0.22265625 0 0 Z " fill="#1688D3" transform="translate(89.328125,13.22265625)"/>
<path d="M0 0 C3.375 0.25 3.375 0.25 7 1 C8.4375 3.0625 8.4375 3.0625 9 5 C4.76923077 9.83516484 4.76923077 9.83516484 1.375 10.5625 C-1 10 -1 10 -2.8125 8 C-3.204375 7.34 -3.59625 6.68 -4 6 C-2.68 4.02 -1.36 2.04 0 0 Z " fill="#C88F71" transform="translate(56,106)"/>
<path d="M0 0 C2.475 0.495 2.475 0.495 5 1 C5 5.62 5 10.24 5 15 C3.35 15.33 1.7 15.66 0 16 C0 10.72 0 5.44 0 0 Z " fill="#1785D4" transform="translate(60,5)"/>
<path d="M0 0 C4.25622384 0.76003997 6.71301511 2.95432478 10 5.625 C12.03734305 7.02567335 13.58566636 7.56886899 16 8 C16 8.99 16 9.98 16 11 C12.12704069 11.56480657 10.09689037 11.76802019 6.82421875 9.4765625 C5.42367108 8.22195855 4.04720745 6.93981864 2.69921875 5.62890625 C1.08186296 3.91754853 1.08186296 3.91754853 -1 3 C-0.67 2.01 -0.34 1.02 0 0 Z " fill="#D9B49A" transform="translate(71,104)"/>
<path d="M0 0 C0.5775 0.763125 1.155 1.52625 1.75 2.3125 C4.8031852 5.9593601 7.26045416 8.15365253 12 9 C12 9.66 12 10.32 12 11 C7.50985524 12.07763474 5.66989054 12.37757467 1.5625 10.0625 C0.716875 9.381875 -0.12875 8.70125 -1 8 C-0.67 5.36 -0.34 2.72 0 0 Z " fill="#DBB59C" transform="translate(65,111)"/>
<path d="M0 0 C1.98 0.495 1.98 0.495 4 1 C4.33 4.3 4.66 7.6 5 11 C3.68 11 2.36 11 1 11 C-0.59555725 7.50971852 -1.32049797 4.84597567 -1 1 C-0.67 0.67 -0.34 0.34 0 0 Z " fill="#1589D3" transform="translate(49,11)"/>
<path d="M0 0 C0.99 0.33 1.98 0.66 3 1 C2.67 3.97 2.34 6.94 2 10 C0.35 10.33 -1.3 10.66 -3 11 C-2.88590407 9.54077307 -2.75834456 8.08259402 -2.625 6.625 C-2.55539063 5.81289063 -2.48578125 5.00078125 -2.4140625 4.1640625 C-2 2 -2 2 0 0 Z " fill="#1688D3" transform="translate(73,11)"/>
<path d="M0 0 C1.03125 0.804375 2.0625 1.60875 3.125 2.4375 C6.37127696 4.77799296 8.94902383 5.70358711 13 6 C13 6.33 13 6.66 13 7 C7.375 9 7.375 9 4 9 C1.3125 7 1.3125 7 -1 5 C-0.67 3.35 -0.34 1.7 0 0 Z " fill="#D6B198" transform="translate(16,76)"/>
</svg>
