<?xml version="1.0" encoding="UTF-8"?>
<svg version="1.1" xmlns="http://www.w3.org/2000/svg" width="128" height="128">
<path d="M0 0 C6.6 0 13.2 0 20 0 C20 2.64 20 5.28 20 8 C21.093125 7.896875 22.18625 7.79375 23.3125 7.6875 C27 8 27 8 28.8125 10.125 C30.02117374 13.05126274 31.08376266 15.96936879 32 19 C33.27875 19.12375 34.5575 19.2475 35.875 19.375 C39.75 19.75 39.75 19.75 42 22 C42.32752234 24.71454956 42.1308425 27.25230759 42 30 C41.505 30.495 41.505 30.495 41 31 C40.84313751 32.55948542 40.74923361 34.12542668 40.68359375 35.69140625 C40.64548584 36.54162354 40.60737793 37.39184082 40.56811523 38.26782227 C40.52501221 39.35506592 40.48190918 40.44230957 40.4375 41.5625 C40.293125 45.006875 40.14875 48.45125 40 52 C51.22 52 62.44 52 74 52 C74 53.32 74 54.64 74 56 C34.4 56 -5.2 56 -46 56 C-46 54.68 -46 53.36 -46 52 C-37.42 52 -28.84 52 -20 52 C-20.144375 48.555625 -20.28875 45.11125 -20.4375 41.5625 C-20.48060303 40.47525635 -20.52370605 39.3880127 -20.56811523 38.26782227 C-20.6252771 36.99249634 -20.6252771 36.99249634 -20.68359375 35.69140625 C-20.72025146 34.81685791 -20.75690918 33.94230957 -20.79467773 33.04125977 C-20.78181066 31.0072598 -20.78181066 31.0072598 -22 30 C-22.27314815 24.26388889 -22.27314815 24.26388889 -22 22 C-18.99382731 18.99382731 -16.17618402 19.40414684 -12 19 C-11.72285156 18.28972656 -11.44570313 17.57945313 -11.16015625 16.84765625 C-10.79792969 15.92855469 -10.43570313 15.00945312 -10.0625 14.0625 C-9.70285156 13.14597656 -9.34320313 12.22945312 -8.97265625 11.28515625 C-8 9 -8 9 -7 8 C-4.66702567 7.95907063 -2.33294775 7.95758277 0 8 C0 5.36 0 2.72 0 0 Z M-4 48 C-4 49.32 -4 50.64 -4 52 C5.24 52 14.48 52 24 52 C24 50.68 24 49.36 24 48 C14.76 48 5.52 48 -4 48 Z " fill="#030200" transform="translate(50,68)"/>
<path d="M0 0 C6.36786243 6.19891915 9.85730063 11.89895126 10 21 C9.09486173 30.16632087 6.08966994 36.59340799 -0.92578125 42.640625 C-7.09793275 46.68565084 -11.85310782 47.38118039 -19.0625 47.0625 C-24.61092147 46.84608854 -28.71019256 47.07165885 -34 49 C-36.875 49.125 -36.875 49.125 -39 49 C-38.93039063 47.85724609 -38.93039063 47.85724609 -38.859375 46.69140625 C-38.58760144 39.38663456 -38.58760144 39.38663456 -41 32.625 C-44.35168379 26.04133541 -44.00751793 18.4704438 -42.41015625 11.3828125 C-39.81860644 4.47997475 -34.11192121 -1.10751027 -27.4453125 -4.17578125 C-18.22810663 -7.28253914 -7.72969528 -6.18738519 0 0 Z " fill="#00C6AE" transform="translate(115,17)"/>
<path d="M0 0 C5.92488185 3.16366333 11.23230075 8.97833203 13.5625 15.328125 C15.20654048 23.48961168 14.81760085 30.87672235 10.890625 38.19140625 C9.1325114 42.74862178 9.70735788 47.69579186 10 52.5 C8.824375 52.355625 7.64875 52.21125 6.4375 52.0625 C5.32568359 51.92714844 5.32568359 51.92714844 4.19140625 51.7890625 C2.41209429 51.55435825 0.64133822 51.25544088 -1.125 50.9375 C-4.79871398 50.52272584 -8.12590255 50.61050712 -11.8125 50.75 C-19.76572646 50.78377166 -25.18936033 48.95583151 -31.09765625 43.59765625 C-36.57518694 37.73771069 -38.86743211 31.57191165 -39 23.5 C-37.98317525 14.13875631 -34.07650911 8.04360732 -27.09765625 1.98046875 C-19.73680854 -3.21461743 -8.27494354 -3.22437455 0 0 Z " fill="#F7CD20" transform="translate(42,5.5)"/>
<path d="M0 0 C6.36786243 6.19891915 9.85730063 11.89895126 10 21 C9.09486173 30.16632087 6.08966994 36.59340799 -0.92578125 42.640625 C-7.09793275 46.68565084 -11.85310782 47.38118039 -19.0625 47.0625 C-24.61092147 46.84608854 -28.71019256 47.07165885 -34 49 C-36.875 49.125 -36.875 49.125 -39 49 C-38.93039063 47.85724609 -38.93039063 47.85724609 -38.859375 46.69140625 C-38.58760144 39.38663456 -38.58760144 39.38663456 -41 32.625 C-44.35168379 26.04133541 -44.00751793 18.4704438 -42.41015625 11.3828125 C-39.81860644 4.47997475 -34.11192121 -1.10751027 -27.4453125 -4.17578125 C-18.22810663 -7.28253914 -7.72969528 -6.18738519 0 0 Z M-34 6 C-37.98222757 12.09434828 -40.2425772 17.70149394 -39 25 C-37.72149821 29.8872952 -37.72149821 29.8872952 -35 34 C-34.76807135 35.51469448 -34.58784762 37.03754562 -34.4375 38.5625 C-34.31181641 39.80193359 -34.31181641 39.80193359 -34.18359375 41.06640625 C-34.12300781 41.70449219 -34.06242187 42.34257813 -34 43 C-33.37351562 42.91621094 -32.74703125 42.83242188 -32.1015625 42.74609375 C-30.87566406 42.59333984 -30.87566406 42.59333984 -29.625 42.4375 C-28.40683594 42.28087891 -28.40683594 42.28087891 -27.1640625 42.12109375 C-25 42 -25 42 -23 43 C-15.06936957 43.96379189 -8.44103542 42.89833987 -2 38 C2.96122618 32.24215417 5.3258406 26.99494066 5.21484375 19.41015625 C4.62475689 12.79045452 2.10602063 8.27480797 -3 4 C-12.79241596 -3.05053949 -25.26930741 -3.20262192 -34 6 Z " fill="#000403" transform="translate(115,17)"/>
<path d="M0 0 C5.92488185 3.16366333 11.23230075 8.97833203 13.5625 15.328125 C15.20654048 23.48961168 14.81760085 30.87672235 10.890625 38.19140625 C9.1325114 42.74862178 9.70735788 47.69579186 10 52.5 C8.824375 52.355625 7.64875 52.21125 6.4375 52.0625 C5.32568359 51.92714844 5.32568359 51.92714844 4.19140625 51.7890625 C2.41209429 51.55435825 0.64133822 51.25544088 -1.125 50.9375 C-4.79871398 50.52272584 -8.12590255 50.61050712 -11.8125 50.75 C-19.76572646 50.78377166 -25.18936033 48.95583151 -31.09765625 43.59765625 C-36.57518694 37.73771069 -38.86743211 31.57191165 -39 23.5 C-37.98317525 14.13875631 -34.07650911 8.04360732 -27.09765625 1.98046875 C-19.73680854 -3.21461743 -8.27494354 -3.22437455 0 0 Z M-29.9609375 10.73828125 C-34.07209893 16.78921603 -35.33636678 22.29389915 -34 29.5 C-31.82543903 36.6760512 -28.39091656 40.64286799 -21.98828125 44.44140625 C-16.26700565 47.4875078 -10.02112399 47.01302105 -3.6875 45.9375 C-0.56080363 45.42850292 1.92039325 45.84008427 5 46.5 C5.03867188 45.6646875 5.03867188 45.6646875 5.078125 44.8125 C5.39634888 40.53094228 5.91942679 37.25605764 8.0625 33.5 C10.79892896 28.46656863 10.83397155 23.83588621 9.45703125 18.328125 C6.91454576 10.85518423 2.95963791 6.97981896 -4 3.5 C-14.14091546 0.44130283 -22.91257323 2.69303677 -29.9609375 10.73828125 Z " fill="#040300" transform="translate(42,5.5)"/>
<path d="M0 0 C0.99773438 -0.00315216 1.99546875 -0.00630432 3.0234375 -0.009552 C4.65152344 -0.00651566 4.65152344 -0.00651566 6.3125 -0.00341797 C7.41851562 -0.00437469 8.52453125 -0.00533142 9.6640625 -0.00631714 C12.00781308 -0.00699913 14.35156553 -0.00514351 16.6953125 -0.00097656 C20.29691788 0.00437139 23.89839853 -0.00092093 27.5 -0.00732422 C29.77083361 -0.00666344 32.04166714 -0.00538229 34.3125 -0.00341797 C35.94058594 -0.00645432 35.94058594 -0.00645432 37.6015625 -0.009552 C38.59929687 -0.00639984 39.59703125 -0.00324768 40.625 0 C41.50800781 0.00079559 42.39101562 0.00159119 43.30078125 0.00241089 C45.3125 0.12939453 45.3125 0.12939453 46.3125 1.12939453 C46.41073937 2.79368505 46.44223631 4.46221384 46.4375 6.12939453 C46.44136719 7.49064453 46.44136719 7.49064453 46.4453125 8.87939453 C46.3125 11.12939453 46.3125 11.12939453 45.3125 12.12939453 C43.75250952 12.2278642 42.18809456 12.25738071 40.625 12.25878906 C39.62726563 12.26194122 38.62953125 12.26509338 37.6015625 12.26834106 C36.51617187 12.26631683 35.43078125 12.2642926 34.3125 12.26220703 C33.20648438 12.26316376 32.10046875 12.26412048 30.9609375 12.2651062 C28.61718692 12.2657882 26.27343447 12.26393257 23.9296875 12.25976562 C20.32808212 12.25441767 16.72660147 12.25971 13.125 12.26611328 C10.85416639 12.2654525 8.58333286 12.26417135 6.3125 12.26220703 C5.22710937 12.26423126 4.14171875 12.26625549 3.0234375 12.26834106 C2.02570312 12.2651889 1.02796875 12.26203674 0 12.25878906 C-0.88300781 12.25799347 -1.76601563 12.25719788 -2.67578125 12.25637817 C-4.6875 12.12939453 -4.6875 12.12939453 -5.6875 11.12939453 C-5.78573937 9.46510402 -5.81723631 7.79657522 -5.8125 6.12939453 C-5.81507812 5.22189453 -5.81765625 4.31439453 -5.8203125 3.37939453 C-5.57873368 -0.71323493 -3.6123384 0.00325473 0 0 Z " fill="#FDD221" transform="translate(39.6875,99.87060546875)"/>
<path d="M0 0 C4.09206332 1.808121 6.69807584 4.16345973 9 8 C9.59754158 12.70563993 9.55247051 14.89505897 7.4375 19.125 C4.57693884 22.49899521 1.4597555 25.25940716 -2 28 C-7.6131052 26.63924722 -10.61031425 22.37378806 -14 18 C-15.63125565 14.7374887 -15.68851113 11.5120384 -15 8 C-11.02622012 1.59304414 -7.59384259 -0.51483679 0 0 Z " fill="#0D0901" transform="translate(33,16)"/>
<path d="M0 0 C4.08998175 1.80720124 6.66247347 4.19069751 9 8 C9.6665002 13.23678731 8.9191499 16.62127514 6 21 C3.45006287 23.48455413 0.77533253 25.77182329 -2 28 C-7.6131052 26.63924722 -10.61031425 22.37378806 -14 18 C-15.63125565 14.7374887 -15.68851113 11.5120384 -15 8 C-11.02622012 1.59304414 -7.59384259 -0.51483679 0 0 Z " fill="#030807" transform="translate(101,24)"/>
<path d="M0 0 C11.22 0 22.44 0 34 0 C35.32 2.64 36.64 5.28 38 8 C24.14 8 10.28 8 -4 8 C-2.68 5.36 -1.36 2.72 0 0 Z " fill="#E3E4E5" transform="translate(43,88)"/>
<path d="M0 0 C4.0743356 0.84881992 5.54405875 2.30225596 8 5.625 C8.6938009 8.81648414 8.52076754 10.62652051 7.0078125 13.52734375 C3.89857426 18.24913723 3.89857426 18.24913723 0.9921875 19.46484375 C0.33476563 19.51769531 -0.32265625 19.57054688 -1 19.625 C-4.63154741 16.51224508 -7.69877437 13.60448271 -8.4375 8.75 C-8 5.625 -8 5.625 -5.875 2.75 C-3 0.625 -3 0.625 0 0 Z " fill="#E2471F" transform="translate(98,27.375)"/>
<path d="M0 0 C4.0743356 0.84881992 5.54405875 2.30225596 8 5.625 C8.6938009 8.81648414 8.52076754 10.62652051 7.0078125 13.52734375 C3.89857426 18.24913723 3.89857426 18.24913723 0.9921875 19.46484375 C0.33476562 19.51769531 -0.32265625 19.57054688 -1 19.625 C-4.63154741 16.51224508 -7.69877437 13.60448271 -8.4375 8.75 C-8 5.625 -8 5.625 -5.875 2.75 C-3 0.625 -3 0.625 0 0 Z " fill="#E2471F" transform="translate(30,19.375)"/>
<path d="M0 0 C9.9 0 19.8 0 30 0 C30 1.32 30 2.64 30 4 C20.1 4 10.2 4 0 4 C0 2.68 0 1.36 0 0 Z " fill="#FCD121" transform="translate(45,80)"/>
<path d="M0 0 C1.875 0 1.875 0 4 1 C5.75 4.5625 5.75 4.5625 7 8 C2.38 8 -2.24 8 -7 8 C-1.125 1.125 -1.125 1.125 0 0 Z " fill="#D8D8DA" transform="translate(74,88)"/>
<path d="M0 0 C2 2 2 2 2.0625 5.625 C1.2891476 11.0384668 -2.22669215 14.295656 -6 18 C-7.65 17.67 -9.3 17.34 -11 17 C-10.2575 16.278125 -9.515 15.55625 -8.75 14.8125 C-4.01209281 9.9669131 -1.53966758 6.54358721 0 0 Z " fill="#00AC97" transform="translate(110,35)"/>
<path d="M0 0 C2 2 2 2 2.0625 5.625 C1.2891476 11.0384668 -2.22669215 14.295656 -6 18 C-7.65 17.67 -9.3 17.34 -11 17 C-10.2575 16.278125 -9.515 15.55625 -8.75 14.8125 C-4.01209281 9.9669131 -1.53966758 6.54358721 0 0 Z " fill="#E3B900" transform="translate(42,27)"/>
<path d="M0 0 C2.625 0.375 2.625 0.375 5 1 C5.625 3.375 5.625 3.375 6 6 C5.34 6.66 4.68 7.32 4 8 C1.375 7.625 1.375 7.625 -1 7 C-1.625 4.625 -1.625 4.625 -2 2 C-1.34 1.34 -0.68 0.68 0 0 Z " fill="#100D02" transform="translate(76,102)"/>
<path d="M0 0 C2.625 0.375 2.625 0.375 5 1 C5.625 3.375 5.625 3.375 6 6 C5.34 6.66 4.68 7.32 4 8 C1.375 7.625 1.375 7.625 -1 7 C-1.625 4.625 -1.625 4.625 -2 2 C-1.34 1.34 -0.68 0.68 0 0 Z " fill="#100D02" transform="translate(40,102)"/>
<path d="M0 0 C3.96 0 7.92 0 12 0 C12 1.32 12 2.64 12 4 C8.04 4 4.08 4 0 4 C0 2.68 0 1.36 0 0 Z " fill="#000000" transform="translate(54,104)"/>
<path d="M0 0 C3.96 0 7.92 0 12 0 C12 1.32 12 2.64 12 4 C8.04 4 4.08 4 0 4 C0 2.68 0 1.36 0 0 Z " fill="#EBBF00" transform="translate(54,72)"/>
<path d="M0 0 C2.64 0 5.28 0 8 0 C8 1.32 8 2.64 8 4 C5.36 4 2.72 4 0 4 C0 2.68 0 1.36 0 0 Z " fill="#4A494F" transform="translate(78,116)"/>
<path d="M0 0 C2.64 0 5.28 0 8 0 C8 1.32 8 2.64 8 4 C5.36 4 2.72 4 0 4 C0 2.68 0 1.36 0 0 Z " fill="#4A494F" transform="translate(34,116)"/>
</svg>
